<?xml version="1.0" encoding="UTF-8"?>
<svg xmlns="http://www.w3.org/2000/svg" viewBox="0 0 573.47 349.54">
  <g id="camion">
    <path d="M18.09,0h381.66c9.95,0,18.08,8.14,18.08,18.09v190.08c0,9.95-8.13,18.08-18.08,18.08H18.09c-9.95,0-18.09-8.14-18.09-18.08V18.09C0,8.14,8.14,0,18.09,0Z" style="fill: #fff; stroke-width: 0px;"/>
    <path d="M95.68,244.45c-12.33,9.84-21.33,23.85-24.63,40.17-.56,2.8-.93,5.61-1.15,8.41h-12.25c-4.99,0-7.06-3.56-8-5.45l-12.33-40.95c-.38-.77-.57-1.5-.6-2.18h58.96Z" style="fill: #fff; stroke-width: 0px;"/>
    <path d="M195.9,260.14c-4-6.03-8.85-11.29-14.34-15.69h218.18c6.52,0,12.62-1.75,17.92-4.77,3.4-1.25,8.11-3.94,10.86-9.51,4.68-6.11,7.5-13.72,7.5-21.99V71.82c1.03-.37,2.18-.57,3.45-.57h74.19c7.89,0,12.64,5.47,12.64,5.47l2.13,3.27,31.72,77.88c1.72,3.21,3.13,8.79,3.13,12.41v70.03l-.05.4h3.65c3.63,0,6.59,2.96,6.59,6.59v39.57c0,3.63-2.97,6.6-6.59,6.6h-34.74c-.79-11.79-4.62-23.23-11.34-33.34-10.17-15.32-25.71-25.76-43.74-29.4-4.51-.91-9.11-1.37-13.67-1.37-1.24,0-2.46.09-3.68.17l-.59-.03c-2.05,0-4.06.26-6.04.7-28.12,4.3-51.35,25.83-57.12,54.41-.59,2.95-.97,5.91-1.18,8.86h-187.52c-.79-11.79-4.63-23.23-11.34-33.34ZM453.78,128.8c0,2.05,1.68,3.73,3.74,3.73h19.8c2.06,0,4.37,1.56,5.14,3.46l7.27,17.94c.78,1.9,3.09,3.46,5.14,3.46h42.02c2.06,0,3.11-1.56,2.33-3.46l-25-62.24c-.78-1.9-3.09-3.47-5.14-3.47h-51.56c-2.06,0-3.74,1.69-3.74,3.74v36.84Z" style="fill: #fff; stroke-width: 0px;"/>
  </g>
  <g id="rueda2">
    <path d="M138.25,265.12c18.43,0,33.42,14.99,33.42,33.42s-14.99,33.42-33.42,33.42-33.42-14.99-33.42-33.42,14.99-33.42,33.42-33.42ZM132.06,298.53c0,3.42,2.77,6.19,6.19,6.19s6.19-2.77,6.19-6.19-2.77-6.19-6.19-6.19-6.19,2.77-6.19,6.19ZM163.82,284.74c-4.17-7.77-11.66-13.2-20.34-14.77-1.66-.3-3.18,1-3.18,2.69v5.43c0,4.03,2.01,7.75,5.3,10.09.05.04.11.07.16.12,3.28,2.41,7.45,3.25,11.32,1.99l5.17-1.67c1.61-.52,2.37-2.38,1.57-3.86ZM159.32,318.51c5.06-5.35,7.97-12.51,7.97-19.97,0-1.29-.09-2.58-.25-3.85-.22-1.67-1.93-2.73-3.55-2.21l-5.15,1.67c-3.87,1.26-6.79,4.38-7.99,8.27-.03.09-.06.18-.09.27-1.27,3.79-.68,7.96,1.67,11.2l3.19,4.38c1.01,1.4,3.03,1.5,4.21.24ZM125.68,324.72c3.89,1.87,8.15,2.85,12.57,2.85s8.68-.98,12.57-2.85c1.52-.73,1.98-2.67.99-4.04l-3.19-4.4c-2.38-3.29-6.23-5.08-10.29-5.05h-.17c-4.06-.03-7.9,1.76-10.28,5.05l-3.19,4.4c-.99,1.37-.52,3.31.99,4.04ZM109.47,294.68c-.17,1.27-.25,2.56-.25,3.85,0,7.47,2.91,14.63,7.97,19.97,1.18,1.25,3.2,1.15,4.21-.24l3.18-4.38c2.36-3.25,2.91-7.43,1.65-11.25-.03-.09-.05-.18-.08-.27-1.18-3.88-4.12-6.97-7.98-8.22l-5.17-1.67c-1.61-.52-3.31.53-3.54,2.21ZM114.26,288.6l5.17,1.67c3.87,1.26,8.04.42,11.32-1.99.03-.02.06-.04.1-.07,3.31-2.38,5.37-6.14,5.37-10.22v-5.35c0-1.69-1.52-2.99-3.18-2.69-8.68,1.57-16.16,7.01-20.34,14.77-.8,1.49-.03,3.34,1.57,3.87ZM88.91,298.48c0-.92-.74-1.67-1.66-1.7.11-3.38.56-6.68,1.3-9.86.13.03.26.05.4.05.75,0,1.44-.5,1.64-1.26.24-.9-.28-1.81-1.17-2.07.98-3.21,2.26-6.28,3.82-9.19.26.15.54.22.82.22.59,0,1.16-.31,1.47-.85.47-.8.2-1.82-.59-2.3,1.77-2.83,3.8-5.46,6.07-7.88.33.31.75.48,1.17.48s.87-.17,1.2-.5c.66-.66.66-1.71.03-2.38,2.42-2.26,5.06-4.3,7.89-6.06.32.52.87.82,1.45.82.29,0,.58-.07.85-.22.81-.46,1.08-1.48.64-2.3,2.91-1.55,5.98-2.83,9.19-3.8.22.74.9,1.23,1.63,1.23.14,0,.29-.02.44-.06.9-.24,1.42-1.15,1.21-2.04,3.18-.74,6.48-1.17,9.86-1.28.02.92.77,1.66,1.7,1.66s1.67-.74,1.7-1.66c3.38.11,6.68.55,9.86,1.29-.21.89.32,1.8,1.21,2.04.15.04.3.06.44.06.74,0,1.41-.49,1.63-1.23,3.21.98,6.28,2.26,9.19,3.81-.45.81-.17,1.83.63,2.29.27.16.56.23.86.23.57,0,1.13-.3,1.44-.82,2.83,1.76,5.47,3.8,7.89,6.06-.64.67-.63,1.72.03,2.38.33.33.77.5,1.2.5s.84-.16,1.17-.47c2.26,2.42,4.3,5.06,6.06,7.89-.79.48-1.05,1.5-.59,2.3.32.54.89.85,1.48.85.28,0,.56-.07.82-.22,1.56,2.91,2.84,5.98,3.81,9.19-.88.25-1.41,1.17-1.17,2.07.2.76.89,1.26,1.64,1.26.13,0,.26-.01.4-.05.74,3.18,1.18,6.48,1.29,9.86-.92.02-1.66.77-1.66,1.7v.11c0,.92.73,1.67,1.66,1.7-.12,3.38-.56,6.68-1.31,9.86-.89-.22-1.8.31-2.04,1.21-.24.89.28,1.81,1.17,2.07-.98,3.2-2.27,6.28-3.83,9.18-.81-.44-1.83-.17-2.29.63-.47.8-.2,1.82.58,2.3-1.77,2.82-3.81,5.46-6.08,7.87-.67-.63-1.72-.63-2.37.02-.66.66-.66,1.7-.03,2.37-2.42,2.26-5.07,4.29-7.9,6.05-.48-.78-1.5-1.06-2.3-.59-.8.46-1.08,1.48-.64,2.29-2.91,1.55-5.98,2.82-9.19,3.79-.26-.89-1.18-1.41-2.07-1.17-.9.23-1.43,1.14-1.22,2.04-3.18.73-6.48,1.16-9.86,1.27-.02-.92-.77-1.66-1.7-1.66s-1.67.73-1.7,1.66c-3.38-.12-6.68-.56-9.86-1.3.22-.89-.31-1.8-1.21-2.04-.89-.24-1.81.28-2.07,1.17-3.21-.98-6.28-2.26-9.18-3.82.45-.81.17-1.83-.63-2.29-.8-.47-1.83-.2-2.31.58-2.82-1.77-5.46-3.8-7.88-6.07.64-.66.63-1.71-.02-2.37-.66-.66-1.71-.66-2.38-.03-2.26-2.42-4.29-5.06-6.05-7.89.79-.48,1.06-1.5.59-2.3-.47-.81-1.48-1.08-2.29-.64-1.55-2.91-2.83-5.99-3.8-9.2.88-.25,1.41-1.17,1.17-2.06-.23-.9-1.14-1.43-2.04-1.22-.73-3.18-1.17-6.48-1.28-9.86.92-.02,1.66-.77,1.66-1.7ZM138.25,334c19.55,0,35.46-15.91,35.46-35.46s-15.91-35.46-35.46-35.46-35.46,15.91-35.46,35.46,15.91,35.46,35.46,35.46Z" style="fill: #fff; stroke-width: 0px;"/>
  </g>
  <g id="rueda1">
    <path d="M463.25,265.12c18.43,0,33.42,14.99,33.42,33.42s-14.99,33.42-33.42,33.42-33.42-14.99-33.42-33.42,14.99-33.42,33.42-33.42ZM457.06,298.53c0,3.42,2.77,6.19,6.19,6.19s6.19-2.77,6.19-6.19-2.77-6.19-6.19-6.19-6.19,2.77-6.19,6.19ZM488.82,284.74c-4.17-7.77-11.66-13.2-20.34-14.77-1.66-.3-3.18,1-3.18,2.69v5.43c0,4.03,2.01,7.75,5.3,10.09.05.04.11.07.16.12,3.28,2.41,7.45,3.25,11.32,1.99l5.17-1.67c1.61-.52,2.37-2.38,1.57-3.86ZM484.32,318.51c5.06-5.35,7.97-12.51,7.97-19.97,0-1.29-.09-2.58-.25-3.85-.22-1.67-1.93-2.73-3.55-2.21l-5.15,1.67c-3.87,1.26-6.79,4.38-7.99,8.27-.03.09-.06.18-.09.27-1.27,3.79-.68,7.96,1.67,11.2l3.19,4.38c1.01,1.4,3.03,1.5,4.21.24ZM450.68,324.72c3.89,1.87,8.15,2.85,12.57,2.85s8.68-.98,12.57-2.85c1.52-.73,1.98-2.67.99-4.04l-3.19-4.4c-2.38-3.29-6.23-5.08-10.29-5.05h-.17c-4.06-.03-7.9,1.76-10.28,5.05l-3.19,4.4c-.99,1.37-.52,3.31.99,4.04ZM434.47,294.68c-.17,1.27-.25,2.56-.25,3.85,0,7.47,2.91,14.63,7.97,19.97,1.18,1.25,3.2,1.15,4.21-.24l3.18-4.38c2.36-3.25,2.91-7.43,1.65-11.25-.03-.09-.05-.18-.08-.27-1.18-3.88-4.12-6.97-7.98-8.22l-5.17-1.67c-1.61-.52-3.31.53-3.54,2.21ZM439.26,288.6l5.17,1.67c3.87,1.26,8.04.42,11.32-1.99.03-.02.06-.04.1-.07,3.31-2.38,5.37-6.14,5.37-10.22v-5.35c0-1.69-1.52-2.99-3.18-2.69-8.68,1.57-16.16,7.01-20.34,14.77-.8,1.49-.03,3.34,1.57,3.87ZM413.91,298.48c0-.92-.74-1.67-1.66-1.7.11-3.38.56-6.68,1.3-9.86.13.03.26.05.4.05.75,0,1.44-.5,1.64-1.26.24-.9-.28-1.81-1.17-2.07.98-3.21,2.26-6.28,3.82-9.19.26.15.54.22.82.22.59,0,1.16-.31,1.47-.85.47-.8.2-1.82-.59-2.3,1.77-2.83,3.8-5.46,6.07-7.88.33.31.75.48,1.17.48s.87-.17,1.2-.5c.66-.66.66-1.71.03-2.38,2.42-2.26,5.06-4.3,7.89-6.06.32.52.87.82,1.45.82.29,0,.58-.07.85-.22.81-.46,1.08-1.48.64-2.3,2.91-1.55,5.98-2.83,9.19-3.8.22.74.9,1.23,1.63,1.23.14,0,.29-.02.44-.06.9-.24,1.42-1.15,1.21-2.04,3.18-.74,6.48-1.17,9.86-1.28.02.92.77,1.66,1.7,1.66s1.67-.74,1.7-1.66c3.38.11,6.68.55,9.86,1.29-.21.89.32,1.8,1.21,2.04.15.04.3.06.44.06.74,0,1.41-.49,1.63-1.23,3.21.98,6.28,2.26,9.19,3.81-.45.81-.17,1.83.63,2.29.27.16.56.23.86.23.57,0,1.13-.3,1.44-.82,2.83,1.76,5.47,3.8,7.89,6.06-.64.67-.63,1.72.03,2.38.33.33.77.5,1.2.5s.84-.16,1.17-.47c2.26,2.42,4.3,5.06,6.06,7.89-.79.48-1.05,1.5-.59,2.3.32.54.89.85,1.48.85.28,0,.56-.07.82-.22,1.56,2.91,2.84,5.98,3.81,9.19-.88.25-1.41,1.17-1.17,2.07.2.76.89,1.26,1.64,1.26.13,0,.26-.01.4-.05.74,3.18,1.18,6.48,1.29,9.86-.92.02-1.66.77-1.66,1.7v.11c0,.92.73,1.67,1.66,1.7-.12,3.38-.56,6.68-1.31,9.86-.89-.22-1.8.31-2.04,1.21-.24.89.28,1.81,1.17,2.07-.98,3.2-2.27,6.28-3.83,9.18-.81-.44-1.83-.17-2.29.63-.47.8-.2,1.82.58,2.3-1.77,2.82-3.81,5.46-6.08,7.87-.67-.63-1.72-.63-2.37.02-.66.66-.66,1.7-.03,2.37-2.42,2.26-5.07,4.29-7.9,6.05-.48-.78-1.5-1.06-2.3-.59-.8.46-1.08,1.48-.64,2.29-2.91,1.55-5.98,2.82-9.19,3.79-.26-.89-1.18-1.41-2.07-1.17-.9.23-1.43,1.14-1.22,2.04-3.18.73-6.48,1.16-9.86,1.27-.02-.92-.77-1.66-1.7-1.66s-1.67.73-1.7,1.66c-3.38-.12-6.68-.56-9.86-1.3.22-.89-.31-1.8-1.21-2.04-.89-.24-1.81.28-2.07,1.17-3.21-.98-6.28-2.26-9.18-3.82.45-.81.17-1.83-.63-2.29-.8-.47-1.83-.2-2.31.58-2.82-1.77-5.46-3.8-7.88-6.07.64-.66.63-1.71-.02-2.37-.66-.66-1.71-.66-2.38-.03-2.26-2.42-4.29-5.06-6.05-7.89.79-.48,1.06-1.5.59-2.3-.47-.81-1.48-1.08-2.29-.64-1.55-2.91-2.83-5.99-3.8-9.2.88-.25,1.41-1.17,1.17-2.06-.23-.9-1.14-1.43-2.04-1.22-.73-3.18-1.17-6.48-1.28-9.86.92-.02,1.66-.77,1.66-1.7ZM463.25,334c19.55,0,35.46-15.91,35.46-35.46s-15.91-35.46-35.46-35.46-35.46,15.91-35.46,35.46,15.91,35.46,35.46,35.46Z" style="fill: #fff; stroke-width: 0px;"/>
  </g>
</svg>