<?xml version="1.0" encoding="UTF-8"?>
<svg xmlns="http://www.w3.org/2000/svg" viewBox="0 0 1912 429.95">
  <g id="Capa_1" data-name="Capa 1">
    <g>
      <path d="M429.95,214.97c0,50.27-17.26,96.52-46.17,133.13-39.37,49.85-100.35,81.84-168.8,81.84C96.25,429.95,0,333.7,0,214.97S96.25,0,214.97,0s214.97,96.25,214.97,214.97Z" style="fill: #fd7e03; stroke-width: 0px;"/>
      <path d="M306.79,268.23s14.69-3.09,17.01,15.47v74.24h-109.81V45.53h81.03c6.87,0,12.44,5.58,12.42,12.46l-.65,210.25Z" style="fill: #fffffd; stroke-width: 0px;"/>
      <path d="M122.18,268.23s-14.69-3.09-17.01,15.47v74.24h109.81V45.53h-81.03c-6.87,0-12.44,5.58-12.42,12.46l.65,210.25Z" style="fill: #fffffd; stroke-width: 0px;"/>
      <polygon points="211.16 153.53 211.16 208.18 297.77 208.18 297.77 164.87 295.25 164.87 295.25 158.72 292.57 158.72 292.57 154.5 288.72 154.5 288.72 151.04 211.16 151.04 211.16 153.53" style="fill: #191d29; stroke-width: 0px;"/>
      <polygon points="190.14 226.62 196.73 237.04 211.16 237.04 211.16 232.15 200.85 232.15 197.2 226.62 190.14 226.62" style="fill: #dadbdd; stroke-width: 0px;"/>
      <polygon points="268.9 242.53 268.9 316.44 274.57 316.44 274.57 297.88 280.76 297.88 280.76 290.14 299.83 275.19 299.83 214.88 268.9 242.53" style="fill: #dadbdd; stroke-width: 0px;"/>
      <polyline points="280.76 245.29 280.76 275.19 290.3 275.19 290.3 242.53" style="fill: #f99e53; stroke-width: 0px;"/>
      <polygon points="299.83 151.04 299.83 159.72 322.77 159.72 322.77 219 309.11 219 309.11 233.44 293.13 233.44 280.76 245.29 280.76 255.09 295.19 239.62 330.25 239.62 330.25 221.06 345.2 221.06 345.2 163.32 335.4 163.32 335.4 156.62 330.25 156.62 330.25 151.04 299.83 151.04" style="fill: #191d29; stroke-width: 0px;"/>
      <polygon points="285.53 320.43 315.04 320.43 315.04 287.96 304.48 287.96 304.48 291.49 296.87 291.49 296.87 295.35 289.48 295.35 289.48 313.98 285.53 313.98 285.53 320.43" style="fill: #f99e53; stroke-width: 0px;"/>
      <polygon points="289.48 306.12 315.04 306.12 315.04 320.43 285.53 320.43 285.53 313.98 289.48 313.98 289.48 306.12" style="fill: #ffc69c; stroke-width: 0px;"/>
      <polygon points="285.53 328.29 300.28 328.29 300.28 335.51 296.74 335.51 296.74 342.98 292.91 342.98 292.91 350.98 277.92 350.98 277.92 336.54 282.56 336.54 282.56 328.29 285.53 328.29" style="fill: #191d29; stroke-width: 0px;"/>
      <rect x="300.28" y="328.29" width="4" height="4" style="fill: #191d29; stroke-width: 0px;"/>
      <polyline points="277.92 357.93 277.92 383.84 282.56 383.84 282.56 387.71 310.4 387.71 310.4 384.23 315.04 384.23 315.04 357.93" style="fill: #191d29; stroke-width: 0px;"/>
      <rect x="156.2" y="332.28" width="57.87" height="3.8" style="fill: #191d29; stroke-width: 0px;"/>
      <rect x="160.07" y="335.82" width="54" height="3.8" style="fill: #565555; stroke-width: 0px;"/>
      <rect x="163.79" y="339.63" width="50.28" height="3.8" style="fill: #474747; stroke-width: 0px;"/>
      <g>
        <rect x="214" y="332.29" width="57.87" height="3.8" transform="translate(485.87 668.38) rotate(-180)" style="fill: #191d29; stroke-width: 0px;"/>
        <rect x="214" y="335.83" width="54" height="3.8" transform="translate(482 675.47) rotate(-180)" style="fill: #565555; stroke-width: 0px;"/>
        <rect x="214" y="339.63" width="50.28" height="3.8" transform="translate(478.28 683.07) rotate(-180)" style="fill: #474747; stroke-width: 0px;"/>
      </g>
      <rect x="214" y="254.61" width="46.14" height="59.24" style="fill: #362722; stroke-width: 0px;"/>
      <rect x="214" y="258.29" width="46.14" height="3.79" style="fill: #544540; stroke-width: 0px;"/>
      <rect x="214" y="251.3" width="46.14" height="3.79" style="fill: #2c211b; stroke-width: 0px;"/>
      <path d="M214,247.5h45.67c.26,0,.47.21.47.47v3.32h-46.14v-3.79h0Z" style="fill: #251c17; stroke-width: 0px;"/>
      <rect x="214" y="265.66" width="46.14" height="3.79" style="fill: #544540; stroke-width: 0px;"/>
      <rect x="214" y="269.45" width="46.14" height="3.79" style="fill: #493a35; stroke-width: 0px;"/>
      <rect x="214" y="273.24" width="46.14" height="3.79" style="fill: #493a35; stroke-width: 0px;"/>
      <rect x="214" y="277.03" width="46.14" height="3.79" style="fill: #544540; stroke-width: 0px;"/>
      <rect x="214" y="283.03" width="46.14" height="4.34" style="fill: #352822; stroke-width: 0px;"/>
      <rect x="214" y="284.17" width="46.14" height="3.79" style="fill: #544540; stroke-width: 0px;"/>
      <rect x="214" y="291.31" width="46.14" height="3.79" style="fill: #493a35; stroke-width: 0px;"/>
      <rect x="214" y="295.29" width="46.14" height="3.79" style="fill: #544540; stroke-width: 0px;"/>
      <rect x="214" y="302.83" width="46.14" height="3.79" style="fill: #70615c; stroke-width: 0px;"/>
      <rect x="214" y="306.41" width="46.14" height="3.79" style="fill: #493a35; stroke-width: 0px;"/>
      <rect x="214" y="313.86" width="42.47" height="3.67" style="fill: #dadbdd; stroke-width: 0px;"/>
      <rect x="214" y="243.83" width="42.47" height="3.67" style="fill: #dadbdd; stroke-width: 0px;"/>
      <rect x="234.15" y="281.79" width="55.64" height="3.67" transform="translate(-21.65 545.6) rotate(-90)" style="fill: #dadbdd; stroke-width: 0px;"/>
      <polygon points="216.93 153.63 216.93 208.27 130.32 208.27 130.32 164.97 132.84 164.97 132.84 158.82 135.53 158.82 135.53 154.59 139.37 154.59 139.37 151.13 216.93 151.13 216.93 153.63" style="fill: #191d29; stroke-width: 0px;"/>
      <polygon points="235.12 226.71 228.53 237.14 214.1 237.14 214.1 232.24 224.41 232.24 228.06 226.71 235.12 226.71" style="fill: #dadbdd; stroke-width: 0px;"/>
      <polygon points="193.07 226.71 199.66 237.14 214.1 237.14 214.1 232.24 203.79 232.24 200.13 226.71 193.07 226.71" style="fill: #dadbdd; stroke-width: 0px;"/>
      <polygon points="159.19 242.63 159.19 316.53 153.52 316.53 153.52 297.97 147.34 297.97 147.34 290.24 128.26 275.29 128.26 214.97 159.19 242.63" style="fill: #dadbdd; stroke-width: 0px;"/>
      <polyline points="147.34 245.39 147.34 275.29 137.8 275.29 137.8 242.63" style="fill: #f99e53; stroke-width: 0px;"/>
      <polygon points="128.26 151.13 128.26 159.81 105.32 159.81 105.32 219.1 118.98 219.1 118.98 233.53 134.96 233.53 147.34 245.39 147.34 255.18 132.9 239.72 97.84 239.72 97.84 221.16 82.89 221.16 82.89 163.42 92.69 163.42 92.69 156.72 97.84 156.72 97.84 151.13 128.26 151.13" style="fill: #191d29; stroke-width: 0px;"/>
      <polygon points="142.57 320.53 113.05 320.53 113.05 288.06 123.62 288.06 123.62 291.59 131.22 291.59 131.22 295.45 138.61 295.45 138.61 314.08 142.57 314.08 142.57 320.53" style="fill: #f99e53; stroke-width: 0px;"/>
      <polygon points="138.61 306.22 113.05 306.22 113.05 320.53 142.57 320.53 142.57 314.08 138.61 314.08 138.61 306.22" style="fill: #ffc69c; stroke-width: 0px;"/>
      <polygon points="142.57 328.39 127.81 328.39 127.81 335.61 131.35 335.61 131.35 343.08 135.19 343.08 135.19 351.07 150.17 351.07 150.17 336.64 145.53 336.64 145.53 328.39 142.57 328.39" style="fill: #191d29; stroke-width: 0px;"/>
      <rect x="123.81" y="328.39" width="4" height="4" transform="translate(251.62 660.77) rotate(-180)" style="fill: #191d29; stroke-width: 0px;"/>
      <polyline points="150.17 358.03 150.17 383.94 145.53 383.94 145.53 387.8 117.69 387.8 117.69 384.32 113.05 384.32 113.05 358.03" style="fill: #191d29; stroke-width: 0px;"/>
      <rect x="214.1" y="332.38" width="57.87" height="3.8" transform="translate(486.06 668.57) rotate(-180)" style="fill: #191d29; stroke-width: 0px;"/>
      <rect x="214.1" y="335.93" width="54" height="3.8" transform="translate(482.19 675.66) rotate(-180)" style="fill: #565555; stroke-width: 0px;"/>
      <rect x="214.1" y="339.73" width="50.28" height="3.8" transform="translate(478.47 683.26) rotate(-180)" style="fill: #474747; stroke-width: 0px;"/>
      <g>
        <rect x="156.3" y="332.29" width="57.87" height="3.8" style="fill: #191d29; stroke-width: 0px;"/>
        <rect x="160.17" y="335.92" width="54" height="3.8" style="fill: #565555; stroke-width: 0px;"/>
        <rect x="163.89" y="339.72" width="50.28" height="3.8" style="fill: #474747; stroke-width: 0px;"/>
      </g>
      <rect x="167.96" y="254.61" width="46.14" height="59.24" transform="translate(382.05 568.47) rotate(-180)" style="fill: #362722; stroke-width: 0px;"/>
      <rect x="167.96" y="258.29" width="46.14" height="3.79" transform="translate(382.05 520.38) rotate(-180)" style="fill: #544540; stroke-width: 0px;"/>
      <rect x="167.96" y="251.3" width="46.14" height="3.79" transform="translate(382.05 506.38) rotate(-180)" style="fill: #2c211b; stroke-width: 0px;"/>
      <path d="M167.96,247.5h46.14v3.32c0,.26-.21.47-.47.47h-45.67v-3.79h0Z" transform="translate(382.05 498.8) rotate(-180)" style="fill: #251c17; stroke-width: 0px;"/>
      <rect x="167.96" y="265.66" width="46.14" height="3.79" transform="translate(382.05 535.1) rotate(-180)" style="fill: #544540; stroke-width: 0px;"/>
      <rect x="167.96" y="269.45" width="46.14" height="3.79" transform="translate(382.05 542.69) rotate(-180)" style="fill: #493a35; stroke-width: 0px;"/>
      <rect x="167.96" y="273.24" width="46.14" height="3.79" transform="translate(382.05 550.27) rotate(-180)" style="fill: #493a35; stroke-width: 0px;"/>
      <rect x="167.96" y="277.03" width="46.14" height="3.79" transform="translate(382.05 557.86) rotate(-180)" style="fill: #544540; stroke-width: 0px;"/>
      <rect x="167.96" y="283.03" width="46.14" height="4.34" transform="translate(382.05 570.41) rotate(-180)" style="fill: #352822; stroke-width: 0px;"/>
      <rect x="167.96" y="284.17" width="46.14" height="3.79" transform="translate(382.05 572.13) rotate(-180)" style="fill: #544540; stroke-width: 0px;"/>
      <rect x="167.96" y="291.31" width="46.14" height="3.79" transform="translate(382.05 586.41) rotate(-180)" style="fill: #493a35; stroke-width: 0px;"/>
      <rect x="167.96" y="295.29" width="46.14" height="3.79" transform="translate(382.05 594.37) rotate(-180)" style="fill: #544540; stroke-width: 0px;"/>
      <rect x="167.96" y="302.83" width="46.14" height="3.79" transform="translate(382.05 609.45) rotate(-180)" style="fill: #70615c; stroke-width: 0px;"/>
      <rect x="167.96" y="306.41" width="46.14" height="3.79" transform="translate(382.05 616.61) rotate(-180)" style="fill: #493a35; stroke-width: 0px;"/>
      <rect x="171.63" y="313.86" width="42.47" height="3.67" transform="translate(385.72 631.39) rotate(-180)" style="fill: #dadbdd; stroke-width: 0px;"/>
      <rect x="126.86" y="324.24" width="176.23" height="2" transform="translate(429.95 650.49) rotate(-180)" style="fill: #dadbdd; stroke-width: 0px;"/>
      <rect x="171.63" y="243.83" width="42.47" height="3.67" transform="translate(385.72 491.33) rotate(-180)" style="fill: #dadbdd; stroke-width: 0px;"/>
      <rect x="138.3" y="281.79" width="55.64" height="3.67" transform="translate(-117.5 449.74) rotate(-90)" style="fill: #dadbdd; stroke-width: 0px;"/>
      <g>
        <rect x="141.96" y="342.18" width="5.38" height="5.38" transform="translate(289.29 689.74) rotate(-180)" style="fill: #fee3ba; stroke-width: 0px;"/>
        <rect x="138.99" y="339.39" width="5.38" height="5.38" transform="translate(283.36 684.16) rotate(-180)" style="fill: #fee3ba; stroke-width: 0px;"/>
      </g>
      <g>
        <rect x="280.66" y="342.37" width="5.38" height="5.38" style="fill: #fee3ba; stroke-width: 0px;"/>
        <rect x="283.63" y="339.59" width="5.38" height="5.38" style="fill: #fee3ba; stroke-width: 0px;"/>
      </g>
    </g>
  </g>
  <g id="Capa_2" data-name="Capa 2">
    <path d="M579.61,206.8c-14.9-8.11-26.58-19.3-35.04-33.6-8.46-14.29-12.68-30.42-12.68-48.37s4.27-34.08,12.81-48.37c8.54-14.29,20.26-25.49,35.17-33.6,14.9-8.11,31.59-12.16,50.07-12.16,14.99,0,28.67,2.61,41.05,7.84,12.37,5.23,22.83,12.81,31.38,22.75l-21.96,20.66c-13.25-14.29-29.55-21.44-48.89-21.44-12.55,0-23.79,2.75-33.73,8.24-9.94,5.49-17.69,13.12-23.27,22.88-5.58,9.76-8.37,20.83-8.37,33.21s2.79,23.45,8.37,33.21c5.58,9.76,13.33,17.39,23.27,22.88,9.94,5.49,21.18,8.24,33.73,8.24,19.35,0,35.64-7.23,48.89-21.7l21.96,20.92c-8.54,9.93-19.05,17.52-31.5,22.75-12.47,5.23-26.19,7.84-41.18,7.84-18.48,0-35.17-4.05-50.07-12.16ZM831.14,89.93c10.89,9.85,16.34,24.71,16.34,44.58v81.84h-30.85v-17c-4.01,6.1-9.72,10.77-17.13,13.99-7.41,3.22-16.34,4.84-26.8,4.84s-19.61-1.79-27.45-5.36c-7.84-3.57-13.9-8.54-18.17-14.9-4.27-6.36-6.41-13.55-6.41-21.57,0-12.55,4.66-22.62,13.99-30.2,9.32-7.58,24.01-11.37,44.06-11.37h36.08v-2.09c0-9.76-2.92-17.26-8.76-22.49-5.84-5.23-14.51-7.84-26.02-7.84-7.84,0-15.56,1.22-23.14,3.66-7.58,2.44-13.99,5.84-19.22,10.2l-12.81-23.79c7.32-5.58,16.12-9.85,26.41-12.81,10.28-2.96,21.18-4.45,32.68-4.45,20.57,0,36.3,4.93,47.19,14.77ZM801.33,188.76c6.36-3.75,10.85-9.11,13.47-16.08v-16.21h-33.73c-18.83,0-28.24,6.19-28.24,18.56,0,5.93,2.35,10.63,7.06,14.12,4.71,3.49,11.24,5.23,19.61,5.23s15.47-1.87,21.83-5.62ZM970.1,75.15v31.11c-2.79-.52-5.32-.78-7.58-.78-12.73,0-22.66,3.71-29.81,11.11-7.15,7.41-10.72,18.09-10.72,32.03v67.72h-32.68V76.72h31.11v20.39c9.41-14.64,25.97-21.96,49.68-21.96ZM1135.09,76.72v118.44c0,49.15-25.1,73.73-75.3,73.73-13.42,0-26.15-1.7-38.17-5.1-12.03-3.4-21.96-8.33-29.81-14.77l14.64-24.58c6.1,5.05,13.81,9.11,23.14,12.16,9.32,3.05,18.78,4.57,28.37,4.57,15.34,0,26.58-3.49,33.73-10.46,7.15-6.97,10.72-17.6,10.72-31.9v-7.32c-5.58,6.1-12.38,10.72-20.39,13.86-8.02,3.14-16.82,4.71-26.41,4.71-13.25,0-25.23-2.83-35.95-8.5-10.72-5.66-19.18-13.64-25.36-23.92-6.19-10.28-9.28-22.05-9.28-35.3s3.09-24.97,9.28-35.17c6.19-10.2,14.64-18.08,25.36-23.66,10.72-5.58,22.7-8.37,35.95-8.37,10.11,0,19.3,1.66,27.58,4.97,8.28,3.31,15.2,8.37,20.79,15.16v-18.56h31.11ZM1091.03,171.24c7.93-7.41,11.9-17.04,11.9-28.89s-3.97-21.18-11.9-28.5c-7.93-7.32-18.09-10.98-30.46-10.98s-22.79,3.66-30.72,10.98c-7.93,7.32-11.9,16.82-11.9,28.5s3.96,21.49,11.9,28.89c7.93,7.41,18.17,11.11,30.72,11.11s22.53-3.7,30.46-11.11ZM1278.49,89.93c10.89,9.85,16.34,24.71,16.34,44.58v81.84h-30.85v-17c-4.01,6.1-9.72,10.77-17.13,13.99-7.41,3.22-16.34,4.84-26.8,4.84s-19.61-1.79-27.45-5.36c-7.84-3.57-13.9-8.54-18.17-14.9-4.27-6.36-6.41-13.55-6.41-21.57,0-12.55,4.66-22.62,13.99-30.2,9.32-7.58,24.01-11.37,44.06-11.37h36.08v-2.09c0-9.76-2.92-17.26-8.76-22.49-5.84-5.23-14.51-7.84-26.02-7.84-7.84,0-15.56,1.22-23.14,3.66-7.58,2.44-13.99,5.84-19.22,10.2l-12.81-23.79c7.32-5.58,16.12-9.85,26.41-12.81,10.28-2.96,21.18-4.45,32.68-4.45,20.57,0,36.3,4.93,47.19,14.77ZM1248.68,188.76c6.36-3.75,10.85-9.11,13.46-16.08v-16.21h-33.73c-18.82,0-28.24,6.19-28.24,18.56,0,5.93,2.35,10.63,7.06,14.12,4.71,3.49,11.24,5.23,19.61,5.23s15.47-1.87,21.83-5.62ZM1495.37,173.99h-91.51l-18.04,42.36h-35.04l82.36-183.02h33.47l82.62,183.02h-35.56l-18.3-42.36ZM1484.13,147.32l-34.51-80.01-34.25,80.01h68.76ZM1683.23,84.04c10.72,5.93,19.13,14.29,25.23,25.1,6.1,10.81,9.15,23.27,9.15,37.39s-3.05,26.63-9.15,37.52c-6.1,10.9-14.51,19.31-25.23,25.23-10.72,5.93-22.88,8.89-36.47,8.89-18.82,0-33.73-6.28-44.71-18.82v67.72h-32.68V76.72h31.11v18.3c5.4-6.62,12.07-11.59,20-14.9,7.93-3.31,16.69-4.97,26.28-4.97,13.6,0,25.75,2.97,36.47,8.89ZM1672.77,178.17c7.75-8.02,11.63-18.56,11.63-31.64s-3.88-23.62-11.63-31.64c-7.76-8.01-17.65-12.03-29.68-12.03-7.84,0-14.9,1.79-21.18,5.36-6.28,3.57-11.24,8.67-14.9,15.3-3.66,6.63-5.49,14.29-5.49,23.01s1.83,16.39,5.49,23.01c3.66,6.63,8.63,11.72,14.9,15.3,6.27,3.57,13.33,5.36,21.18,5.36,12.03,0,21.92-4.01,29.68-12.03ZM1862.59,84.04c10.72,5.93,19.13,14.29,25.23,25.1,6.1,10.81,9.15,23.27,9.15,37.39s-3.05,26.63-9.15,37.52c-6.1,10.9-14.51,19.31-25.23,25.23-10.72,5.93-22.88,8.89-36.47,8.89-18.82,0-33.73-6.28-44.71-18.82v67.72h-32.68V76.72h31.11v18.3c5.4-6.62,12.07-11.59,20-14.9,7.93-3.31,16.69-4.97,26.28-4.97,13.6,0,25.75,2.97,36.47,8.89ZM1852.13,178.17c7.75-8.02,11.63-18.56,11.63-31.64s-3.88-23.62-11.63-31.64c-7.76-8.01-17.65-12.03-29.68-12.03-7.84,0-14.9,1.79-21.18,5.36-6.28,3.57-11.24,8.67-14.9,15.3-3.66,6.63-5.49,14.29-5.49,23.01s1.83,16.39,5.49,23.01c3.66,6.63,8.63,11.72,14.9,15.3,6.27,3.57,13.33,5.36,21.18,5.36,12.03,0,21.92-4.01,29.68-12.03ZM533.51,326.31h7.4v38.34c0,15.21-7.48,19.89-17.34,19.89-2.72,0-6.04-.6-7.9-1.36l1.1-6.04c1.53.6,3.74,1.11,6.2,1.11,6.63,0,10.54-2.98,10.54-14.2v-37.74ZM587.4,372.38c0,4.25.09,7.99.34,11.22h-6.63l-.43-6.71h-.17c-1.96,3.32-6.29,7.65-13.6,7.65-6.46,0-14.2-3.57-14.2-18.02v-24.05h7.48v22.78c0,7.82,2.38,13.09,9.18,13.09,5.01,0,8.5-3.48,9.86-6.8.43-1.1.68-2.46.68-3.82v-25.24h7.48v29.92ZM599.81,353.59c0-4.25-.08-7.73-.34-11.13h6.63l.43,6.8h.17c2.04-3.91,6.8-7.73,13.6-7.73,5.7,0,14.53,3.4,14.53,17.51v24.57h-7.48v-23.72c0-6.63-2.47-12.15-9.52-12.15-4.93,0-8.76,3.48-10.03,7.65-.34.93-.51,2.21-.51,3.48v24.74h-7.48v-30.01ZM655.66,330.64v11.81h10.71v5.69h-10.71v22.19c0,5.1,1.45,7.99,5.61,7.99,1.96,0,3.4-.26,4.33-.51l.34,5.61c-1.45.6-3.74,1.02-6.63,1.02-3.48,0-6.29-1.11-8.08-3.15-2.12-2.21-2.89-5.87-2.89-10.71v-22.44h-6.37v-5.69h6.37v-9.86l7.31-1.95ZM711.51,362.69c0,15.21-10.54,21.84-20.48,21.84-11.14,0-19.72-8.16-19.72-21.16,0-13.77,9.01-21.84,20.4-21.84s19.8,8.58,19.8,21.16ZM678.87,363.11c0,9.01,5.19,15.81,12.5,15.81s12.5-6.71,12.5-15.98c0-6.97-3.48-15.81-12.33-15.81s-12.67,8.16-12.67,15.98ZM719.93,375.95c2.21,1.45,6.12,2.98,9.86,2.98,5.44,0,7.99-2.72,7.99-6.12,0-3.57-2.12-5.53-7.65-7.57-7.4-2.63-10.88-6.71-10.88-11.64,0-6.63,5.36-12.07,14.2-12.07,4.17,0,7.82,1.19,10.12,2.55l-1.87,5.44c-1.62-1.02-4.59-2.38-8.42-2.38-4.42,0-6.89,2.55-6.89,5.61,0,3.4,2.47,4.93,7.82,6.97,7.14,2.72,10.8,6.29,10.8,12.41,0,7.23-5.61,12.33-15.39,12.33-4.51,0-8.67-1.11-11.56-2.81l1.87-5.7ZM772.88,326.31h7.39v51.09h24.48v6.2h-31.87v-57.29ZM812.75,323.25h7.48v60.35h-7.48v-60.35ZM836.97,364.39c.17,10.12,6.63,14.28,14.11,14.28,5.35,0,8.59-.93,11.39-2.12l1.28,5.36c-2.64,1.19-7.14,2.55-13.69,2.55-12.67,0-20.23-8.33-20.23-20.74s7.31-22.18,19.3-22.18c13.43,0,17,11.81,17,19.38,0,1.53-.17,2.72-.25,3.48h-28.9ZM858.91,359.03c.08-4.76-1.96-12.15-10.37-12.15-7.56,0-10.88,6.97-11.48,12.15h21.85ZM910.84,342.46c-.17,2.97-.34,6.29-.34,11.31v23.88c0,9.43-1.87,15.21-5.87,18.78-4,3.74-9.78,4.93-14.96,4.93s-10.37-1.19-13.69-3.4l1.87-5.7c2.72,1.7,6.97,3.23,12.07,3.23,7.65,0,13.26-4,13.26-14.36v-4.59h-.17c-2.29,3.83-6.71,6.89-13.09,6.89-10.2,0-17.51-8.67-17.51-20.06,0-13.94,9.09-21.84,18.53-21.84,7.14,0,11.05,3.74,12.84,7.14h.17l.34-6.2h6.54ZM903.11,358.69c0-1.27-.09-2.38-.43-3.4-1.36-4.34-5.01-7.91-10.45-7.91-7.14,0-12.24,6.04-12.24,15.56,0,8.08,4.08,14.79,12.15,14.79,4.59,0,8.76-2.89,10.37-7.65.43-1.28.6-2.72.6-4v-7.4ZM945.69,383.6l-.6-5.18h-.26c-2.29,3.23-6.71,6.12-12.58,6.12-8.33,0-12.58-5.87-12.58-11.81,0-9.95,8.84-15.39,24.74-15.3v-.85c0-3.4-.94-9.52-9.35-9.52-3.83,0-7.82,1.19-10.71,3.06l-1.7-4.93c3.4-2.21,8.33-3.65,13.51-3.65,12.58,0,15.64,8.58,15.64,16.83v15.39c0,3.57.17,7.05.68,9.86h-6.8ZM944.59,362.6c-8.16-.17-17.43,1.28-17.43,9.26,0,4.84,3.23,7.14,7.06,7.14,5.36,0,8.76-3.4,9.95-6.89.26-.76.43-1.62.43-2.38v-7.14ZM963.89,353.59c0-4.25-.09-7.73-.34-11.13h6.54l.34,6.63h.26c2.29-3.91,6.12-7.56,12.92-7.56,5.61,0,9.86,3.4,11.64,8.24h.17c1.27-2.29,2.89-4.08,4.59-5.35,2.46-1.87,5.18-2.89,9.09-2.89,5.44,0,13.52,3.57,13.52,17.85v24.22h-7.31v-23.29c0-7.9-2.89-12.67-8.92-12.67-4.25,0-7.56,3.15-8.84,6.8-.34,1.02-.6,2.38-.6,3.74v25.41h-7.31v-24.65c0-6.54-2.89-11.31-8.59-11.31-4.67,0-8.07,3.74-9.26,7.48-.43,1.1-.6,2.38-.6,3.65v24.82h-7.31v-30.01ZM1072.01,362.69c0,15.21-10.54,21.84-20.48,21.84-11.14,0-19.72-8.16-19.72-21.16,0-13.77,9.01-21.84,20.4-21.84s19.8,8.58,19.8,21.16ZM1039.37,363.11c0,9.01,5.19,15.81,12.5,15.81s12.5-6.71,12.5-15.98c0-6.97-3.48-15.81-12.33-15.81s-12.67,8.16-12.67,15.98ZM1080.43,375.95c2.21,1.45,6.12,2.98,9.86,2.98,5.44,0,7.99-2.72,7.99-6.12,0-3.57-2.12-5.53-7.65-7.57-7.4-2.63-10.88-6.71-10.88-11.64,0-6.63,5.36-12.07,14.2-12.07,4.17,0,7.82,1.19,10.12,2.55l-1.87,5.44c-1.62-1.02-4.59-2.38-8.42-2.38-4.42,0-6.89,2.55-6.89,5.61,0,3.4,2.47,4.93,7.82,6.97,7.14,2.72,10.8,6.29,10.8,12.41,0,7.23-5.61,12.33-15.39,12.33-4.51,0-8.67-1.11-11.56-2.81l1.87-5.7ZM1149.94,353.59c0-4.25-.09-7.73-.34-11.13h6.54l.34,6.63h.26c2.29-3.91,6.12-7.56,12.92-7.56,5.61,0,9.86,3.4,11.64,8.24h.17c1.27-2.29,2.89-4.08,4.59-5.35,2.47-1.87,5.19-2.89,9.1-2.89,5.44,0,13.51,3.57,13.51,17.85v24.22h-7.31v-23.29c0-7.9-2.89-12.67-8.92-12.67-4.25,0-7.57,3.15-8.84,6.8-.34,1.02-.6,2.38-.6,3.74v25.41h-7.31v-24.65c0-6.54-2.89-11.31-8.59-11.31-4.68,0-8.08,3.74-9.26,7.48-.43,1.1-.6,2.38-.6,3.65v24.82h-7.31v-30.01ZM1243.62,383.6l-.6-5.18h-.26c-2.29,3.23-6.71,6.12-12.58,6.12-8.33,0-12.58-5.87-12.58-11.81,0-9.95,8.84-15.39,24.74-15.3v-.85c0-3.4-.94-9.52-9.35-9.52-3.83,0-7.82,1.19-10.71,3.06l-1.7-4.93c3.4-2.21,8.33-3.65,13.51-3.65,12.58,0,15.64,8.58,15.64,16.83v15.39c0,3.57.17,7.05.68,9.86h-6.8ZM1242.51,362.6c-8.16-.17-17.42,1.27-17.42,9.26,0,4.84,3.23,7.14,7.06,7.14,5.35,0,8.76-3.4,9.94-6.89.26-.76.43-1.62.43-2.38v-7.14ZM1246.25,324.69l-10.37,12.16h-5.35l7.48-12.16h8.24ZM1260.79,375.95c2.21,1.45,6.12,2.98,9.86,2.98,5.44,0,7.99-2.72,7.99-6.12,0-3.57-2.12-5.53-7.65-7.56-7.4-2.64-10.88-6.72-10.88-11.65,0-6.63,5.35-12.07,14.2-12.07,4.17,0,7.82,1.19,10.11,2.55l-1.87,5.44c-1.62-1.02-4.59-2.38-8.41-2.38-4.42,0-6.89,2.55-6.89,5.61,0,3.4,2.46,4.93,7.82,6.97,7.14,2.72,10.79,6.29,10.79,12.41,0,7.23-5.61,12.33-15.39,12.33-4.5,0-8.67-1.11-11.56-2.81l1.87-5.7ZM1313.74,326.31h7.39v51.09h24.48v6.2h-31.87v-57.29ZM1356.59,364.39c.17,10.12,6.63,14.28,14.11,14.28,5.36,0,8.59-.93,11.39-2.12l1.28,5.36c-2.63,1.19-7.14,2.55-13.69,2.55-12.66,0-20.23-8.33-20.23-20.74s7.31-22.18,19.3-22.18c13.43,0,17,11.81,17,19.38,0,1.53-.17,2.72-.26,3.48h-28.9ZM1378.52,359.03c.08-4.76-1.96-12.15-10.37-12.15-7.56,0-10.88,6.97-11.48,12.15h21.85ZM1384.98,395.5c3.4-.26,6.38-1.19,8.16-3.15,2.04-2.38,2.81-5.61,2.81-15.47v-34.43h7.48v37.32c0,7.99-1.28,13.17-4.93,16.92-3.32,3.32-8.76,4.68-12.75,4.68l-.77-5.87ZM1404.27,330.9c.08,2.47-1.7,4.59-4.68,4.59-2.81,0-4.59-2.12-4.59-4.59,0-2.63,1.96-4.68,4.76-4.68s4.51,2.04,4.51,4.68ZM1452.89,362.69c0,15.21-10.54,21.84-20.48,21.84-11.14,0-19.72-8.16-19.72-21.16,0-13.77,9.01-21.84,20.4-21.84s19.8,8.58,19.8,21.16ZM1420.25,363.11c0,9.01,5.18,15.81,12.5,15.81s12.5-6.71,12.5-15.98c0-6.97-3.49-15.81-12.33-15.81s-12.67,8.16-12.67,15.98ZM1461.31,375.95c2.21,1.45,6.12,2.98,9.86,2.98,5.44,0,7.99-2.72,7.99-6.12,0-3.57-2.12-5.53-7.65-7.56-7.4-2.64-10.88-6.72-10.88-11.65,0-6.63,5.35-12.07,14.2-12.07,4.17,0,7.82,1.19,10.11,2.55l-1.87,5.44c-1.62-1.02-4.59-2.38-8.41-2.38-4.42,0-6.89,2.55-6.89,5.61,0,3.4,2.46,4.93,7.82,6.97,7.14,2.72,10.79,6.29,10.79,12.41,0,7.23-5.61,12.33-15.39,12.33-4.5,0-8.67-1.11-11.56-2.81l1.87-5.7ZM1494.21,349.26c0-3.15,2.13-5.36,5.1-5.36s4.93,2.21,5.01,5.36c0,2.97-1.96,5.27-5.1,5.27-2.97,0-5.01-2.3-5.01-5.27ZM1494.21,379.26c0-3.14,2.13-5.35,5.1-5.35s4.93,2.21,5.01,5.35c0,2.98-1.96,5.27-5.1,5.27-2.97,0-5.01-2.29-5.01-5.27ZM1589.92,381.73c-2.72,1.36-8.16,2.72-15.13,2.72-16.15,0-28.31-10.2-28.31-28.99s12.15-30.09,29.92-30.09c7.14,0,11.65,1.53,13.6,2.55l-1.79,6.03c-2.8-1.36-6.8-2.38-11.56-2.38-13.43,0-22.36,8.59-22.36,23.63,0,14.03,8.08,23.04,22.02,23.04,4.5,0,9.09-.94,12.07-2.38l1.53,5.87ZM1621.12,383.6l-.6-5.18h-.25c-2.29,3.23-6.72,6.12-12.58,6.12-8.33,0-12.58-5.87-12.58-11.81,0-9.95,8.84-15.39,24.74-15.3v-.85c0-3.4-.94-9.52-9.35-9.52-3.82,0-7.82,1.19-10.71,3.06l-1.7-4.93c3.4-2.21,8.33-3.65,13.51-3.65,12.58,0,15.64,8.58,15.64,16.83v15.39c0,3.57.17,7.05.68,9.86h-6.8ZM1620.01,362.6c-8.16-.17-17.43,1.27-17.43,9.26,0,4.84,3.23,7.14,7.06,7.14,5.36,0,8.76-3.4,9.95-6.89.26-.76.43-1.62.43-2.38v-7.14ZM1639.31,355.29c0-4.84-.08-9.01-.34-12.84h6.54l.26,8.07h.34c1.87-5.52,6.37-9.01,11.39-9.01.85,0,1.44.08,2.12.25v7.06c-.76-.17-1.53-.26-2.55-.26-5.27,0-9.01,4-10.03,9.61-.17,1.02-.34,2.21-.34,3.48v21.93h-7.4v-28.3ZM1701.87,342.46c-.17,2.97-.34,6.29-.34,11.31v23.88c0,9.43-1.87,15.21-5.87,18.78-3.99,3.74-9.78,4.93-14.96,4.93s-10.37-1.19-13.68-3.4l1.87-5.7c2.72,1.7,6.97,3.23,12.07,3.23,7.65,0,13.26-4,13.26-14.36v-4.59h-.17c-2.29,3.83-6.71,6.89-13.09,6.89-10.2,0-17.51-8.67-17.51-20.06,0-13.94,9.09-21.84,18.53-21.84,7.14,0,11.05,3.74,12.84,7.14h.17l.34-6.2h6.54ZM1694.13,358.69c0-1.27-.09-2.38-.43-3.4-1.36-4.34-5.01-7.91-10.45-7.91-7.14,0-12.24,6.04-12.24,15.56,0,8.08,4.08,14.79,12.15,14.79,4.59,0,8.76-2.89,10.37-7.65.43-1.28.6-2.72.6-4v-7.4ZM1736.72,383.6l-.6-5.18h-.26c-2.29,3.23-6.71,6.12-12.58,6.12-8.33,0-12.58-5.87-12.58-11.81,0-9.95,8.84-15.39,24.73-15.3v-.85c0-3.4-.93-9.52-9.35-9.52-3.83,0-7.82,1.19-10.71,3.06l-1.7-4.93c3.4-2.21,8.33-3.65,13.52-3.65,12.58,0,15.64,8.58,15.64,16.83v15.39c0,3.57.17,7.05.68,9.86h-6.8ZM1735.62,362.6c-8.16-.17-17.42,1.27-17.42,9.26,0,4.84,3.23,7.14,7.06,7.14,5.35,0,8.76-3.4,9.95-6.89.25-.76.42-1.62.42-2.38v-7.14ZM1782.45,365.58l-5.95,18.02h-7.65l19.47-57.29h8.92l19.55,57.29h-7.9l-6.12-18.02h-20.31ZM1801.24,359.8l-5.61-16.49c-1.27-3.74-2.12-7.14-2.97-10.45h-.17c-.85,3.4-1.78,6.89-2.89,10.37l-5.61,16.58h17.25ZM1824.7,355.89c0-5.27-.17-9.52-.34-13.43h6.71l.34,7.05h.17c3.06-5.01,7.9-7.99,14.62-7.99,9.95,0,17.43,8.41,17.43,20.91,0,14.79-9.01,22.1-18.7,22.1-5.44,0-10.2-2.38-12.67-6.46h-.17v22.36h-7.4v-44.54ZM1832.1,366.85c0,1.11.17,2.12.34,3.06,1.36,5.19,5.87,8.76,11.22,8.76,7.91,0,12.5-6.46,12.5-15.89,0-8.24-4.34-15.3-12.24-15.3-5.1,0-9.86,3.65-11.31,9.26-.25.93-.51,2.04-.51,3.06v7.05ZM1873.07,355.89c0-5.27-.17-9.52-.34-13.43h6.71l.34,7.05h.17c3.06-5.01,7.9-7.99,14.62-7.99,9.95,0,17.43,8.41,17.43,20.91,0,14.79-9.01,22.1-18.7,22.1-5.44,0-10.2-2.38-12.67-6.46h-.17v22.36h-7.4v-44.54ZM1880.46,366.85c0,1.11.17,2.12.34,3.06,1.36,5.19,5.87,8.76,11.22,8.76,7.91,0,12.5-6.46,12.5-15.89,0-8.24-4.34-15.3-12.24-15.3-5.1,0-9.86,3.65-11.31,9.26-.25.93-.51,2.04-.51,3.06v7.05Z" style="fill: #000; stroke-width: 0px;"/>
  </g>
</svg>