<?xml version="1.0" encoding="UTF-8"?>
<svg id="Capa_2" data-name="Capa 2" xmlns="http://www.w3.org/2000/svg" viewBox="0 0 172.42 172.42">
  <g id="Capa_2-2" data-name="Capa 2">
    <path id="Online_Support-Ecommerce-Merchant-Chat-Operator" data-name="Online Support-Ecommerce-Merchant-Chat-Operator" d="M145.52,105.6c-.45-.61-1.12-1.04-1.87-1.18l-5.66-.95c-4.68-.83-9.14,2.3-9.97,6.97h0s-7.9,44.72-7.9,44.72h-42.53c0-9.52-7.72-17.24-17.24-17.24v-18.28c-.02-9.27-4.98-17.83-13.02-22.44l-7.1-4.05v-7.16c11.49-1.45,20.1-11.21,20.12-22.79v-11.49c-.01-3.74-1.85-7.25-4.91-9.4,3.11-2.69,4.9-6.6,4.91-10.72v-5.75c0-1.59-1.29-2.87-2.87-2.87h-29.25c-1.62-4.48-6.57-6.79-11.04-5.16-3.39,1.23-5.65,4.43-5.68,8.04v3.22c-3.68,3.74-5.74,8.78-5.75,14.02v7.79c-5.25,7.89-3.11,18.54,4.78,23.79,2.03,1.35,4.32,2.25,6.72,2.65v13.07l-10.83,7.24C2.4,100.3-.01,104.79,0,109.6v59.94c0,1.59,1.29,2.87,2.87,2.87h124.48c4.19,0,7.78-3,8.51-7.13l10.12-57.53c.14-.75-.03-1.53-.46-2.16ZM54.6,63.22c0,9.52-7.72,17.24-17.25,17.24-4.04,0-7.96-1.42-11.06-4.02,2.41-.94,4.58-2.4,6.35-4.28l3.13,2.07c.47.32,1.02.49,1.58.49h8.62v-5.75h-7.76l-2.39-1.58c1-2.21,1.52-4.61,1.52-7.04-.01-5.79-2.92-11.18-7.76-14.37h19.25c3.17,0,5.74,2.58,5.75,5.75v11.49ZM34.48,86.01v5.43l-11.49-1.93v-8.36c3.3,2.66,7.28,4.34,11.49,4.86ZM28.74,28.74h25.86v2.87c-.01,4.76-3.87,8.61-8.62,8.62h-17.24v-11.49ZM17.24,25.86c0-1.59,1.29-2.87,2.87-2.87s2.87,1.29,2.87,2.87v17.5c-1.9-.32-3.84-.32-5.75,0v-17.5ZM8.62,60.35c0-2.49.8-4.91,2.3-6.9,3.2-4.24,8.88-5.75,13.76-3.68,4.2,1.84,6.92,5.99,6.93,10.57,0,1.29-.24,2.56-.69,3.76l-9.22-6.15-3.16,4.77,9.2,6.15c-4.68,4.24-11.91,3.88-16.15-.8-1.92-2.12-2.97-4.88-2.96-7.74ZM20.78,94.97l15.6,2.61,8.07,4.63c6.26,3.58,10.13,10.23,10.14,17.44v18.28h-31.61v-25.86c-.01-6.04-4.72-11.04-10.75-11.41l8.53-5.69ZM5.75,109.6c0-2.89,1.44-5.59,3.85-7.18l1.9-1.26v5.17c3.17,0,5.74,2.58,5.75,5.75v8.62H5.75v-11.09ZM54.6,166.67H5.75v-8.71c2.47,1.91,5.5,2.95,8.62,2.96h40.23v5.75ZM14.37,155.17c-4.76-.01-8.61-3.87-8.62-8.62v-20.12h11.49v14.37c0,1.59,1.29,2.87,2.87,2.87h40.23c6.35,0,11.49,5.15,11.49,11.49H14.37ZM130.2,164.28c-.25,1.38-1.44,2.38-2.84,2.39H60.35v-5.75h62.18c1.39,0,2.58-1.01,2.82-2.39l8.3-47.07c.27-1.56,1.76-2.61,3.33-2.33.01,0,.02,0,.04,0l2.82.49-9.63,54.66ZM163.8,0h-80.46c-4.76.01-8.61,3.87-8.62,8.62v71.84c.01,4.76,3.87,8.61,8.62,8.62h12.85l10.63,15.95c.53.8,1.43,1.27,2.39,1.26h.17c1.02-.06,1.93-.66,2.39-1.58l7.84-15.63h44.2c4.76-.01,8.61-3.87,8.62-8.62V8.62c-.01-4.76-3.87-8.61-8.62-8.62ZM166.67,80.46c0,1.59-1.29,2.87-2.87,2.87h-45.98c-1.08,0-2.08.61-2.56,1.58l-6.41,12.79-8.74-13.07c-.53-.8-1.42-1.28-2.39-1.29h-14.4c-1.59,0-2.87-1.29-2.87-2.87V8.62c0-1.59,1.29-2.87,2.87-2.87h80.46c1.59,0,2.87,1.29,2.87,2.87v71.84ZM158.92,45.84l-1.35-1.35-2.71-8.14c.41-.13.7-.51.7-.96,0-.55-.45-1-1-1h-9.71v-4.35c0-1.14-.93-2.07-2.07-2.07h-49.27c-1.14,0-2.07.93-2.07,2.07v23.57c0,1.14.93,2.07,2.07,2.07h1.14v2.21c0,1.14.93,2.07,2.07,2.07h2.31c.47,2.44,2.62,4.28,5.19,4.28,1.76,0,3.32-.87,4.28-2.2.96,1.33,2.52,2.2,4.28,2.2,2.57,0,4.72-1.85,5.19-4.28h24.97c.47,2.44,2.62,4.28,5.19,4.28,2.92,0,5.29-2.37,5.29-5.29,0-.02,0-.05,0-.07h4.36c1.14,0,2.07-.93,2.07-2.07v-8.75c0-.84-.33-1.63-.92-2.22ZM99.02,57.96h-2.31s-.07-.03-.07-.07v-2.21h3.43c-.52.65-.89,1.43-1.05,2.28ZM104.21,62.24c-1.81,0-3.28-1.47-3.28-3.28s1.46-3.27,3.26-3.28h.04c1.8.01,3.26,1.48,3.26,3.28,0,1.81-1.47,3.28-3.28,3.28ZM112.78,62.24c-1.81,0-3.28-1.47-3.28-3.28s1.46-3.27,3.26-3.28h.04c1.8.01,3.26,1.48,3.26,3.28,0,1.81-1.47,3.28-3.28,3.28ZM142.94,57.96h-24.97c-.16-.85-.53-1.63-1.05-2.28h19.43c.55,0,1-.45,1-1s-.45-1-1-1h-42.85s-.07-.03-.07-.07v-23.57s.03-.07.07-.07h49.27s.07.03.07.07v23.63h-2.21c-.55,0-1,.45-1,1s.45,1,1,1h3.36c-.52.65-.89,1.43-1.05,2.28ZM155.66,45.11h-6.46s-.07-.03-.07-.07v-4.35h5.06l1.47,4.42ZM148.13,62.24c-1.81,0-3.28-1.47-3.28-3.28s1.46-3.27,3.26-3.28h.02s0,0,0,0c1.81,0,3.28,1.47,3.28,3.28,0,1.81-1.47,3.28-3.28,3.28ZM157.84,56.82s-.03.07-.07.07h-4.78c-.81-1.89-2.68-3.21-4.86-3.21,0,0-.01,0-.02,0h-3.26v-17.21h0s.03-.07.07-.07h7.85l.76,2.28h-5.39c-.55,0-1,.45-1,1v5.36c0,1.14.93,2.07,2.07,2.07h8.15l.15.15c.22.22.33.5.33.81v2.4h-1.14c-.55,0-1,.45-1,1s.45,1,1,1h1.14v4.35Z" style="fill: #005d7a; stroke-width: 0px;"/>
  </g>
</svg>