<?xml version="1.0" encoding="UTF-8"?>
<svg id="Capa_2" data-name="Capa 2" xmlns="http://www.w3.org/2000/svg" version="1.1" viewBox="0 0 210.1 194">
  <defs>
    <style>
      .cls-1 {
        fill: #005d7a;
        stroke-width: 0px;
      }
    </style>
  </defs>
  <path class="cls-1" d="M46.1,45.9h.8c.4,0,.8-.3.8-.8s-.3-.8-.8-.8h-.8v1.5Z"/>
  <path class="cls-1" d="M37,42.8h9.2s0-2.1,0-2.1c0-.4-.2-.8-.5-1.1l-2.9-2.9h-5.8v6.1Z"/>
  <rect class="cls-1" x="43.1" y="49.7" width="3" height=".8"/>
  <path class="cls-1" d="M5,53.5c0,.4.3.8.8.8h0c.4-2.2,2.2-3.8,4.5-3.8s3.1.9,3.9,2.3h2c.8-1.3,2.3-2.3,3.9-2.3s3.2.9,3.9,2.3h1.4v-.8c0-.4.3-.8.8-.8h3c.4,0,.8.3.8.8v.8h2.1c.8-1.3,2.3-2.3,3.9-2.3s1.8.3,2.5.8h2.8v-1.5H5v3.8Z"/>
  <path class="cls-1" d="M36.2,46.6c-.2,0-.4,0-.5-.2s-.2-.3-.2-.5v-9.1c0-.8.7-1.5,1.5-1.5h4.3l-.3-.3c-.3-.3-.7-.5-1.1-.5h-5.1v13.7h3.7c-.3-.9-1.2-1.5-2.1-1.5Z"/>
  <path class="cls-1" d="M81.3,16.8h2.2v.7h1.5v-1.9l1-1h1.8c-1.6,0-2.8,1.3-2.8,2.9s1.3,2.9,2.9,2.9,2.9-1.3,2.9-2.9h1.4v-.7h11.7v.7h1.5v-1.9l1-1h1.8c-1.6,0-2.8,1.3-2.8,2.9s1.3,2.9,2.9,2.9,2.9-1.3,2.9-2.9h1.4v-.7h.7v.7h1.5v-1.9l1-1h1.8c-1.6,0-2.8,1.3-2.8,2.9s1.3,2.9,2.9,2.9,2.9-1.3,2.9-2.9-1.3-2.9-2.8-2.9h1.7l1,1v1.2c0,.4.3.7.7.7h3.7c.4,0,.7-.3.7-.7v-5.8c0,0,0-.2,0-.2l-1.7-4.4c-.4-1.1-1.5-1.9-2.7-1.9h-5.8c-.4,0-.7.3-.7.7v8.1h-.7V.7C114.2.3,113.9,0,113.5,0h-31.5c-.4,0-.7.3-.7.7v12.4h0c-.4,0-.7.3-.7.7v2.2c0,.4.3.7.7.7ZM119.4,17.6c0,.8-.7,1.5-1.5,1.5s-1.5-.7-1.5-1.5.7-1.5,1.5-1.5,1.5.7,1.5,1.5ZM118.7,5.9h2.9c.6,0,1.2.4,1.4,1l1.2,3.2-5.4-1.1v-3.1ZM116.5,5.9h0s.7,0,.7,0v3.7c0,.4.2.7.6.7l6.7,1.3v2.3h-1.5v1.5h1.5v.7h-2.2v-.7c0-.2,0-.4-.2-.5l-1.5-1.5c-.1-.1-.3-.2-.5-.2h-3.7v-7.3ZM87.9,19c-.8,0-1.5-.7-1.5-1.5s.7-1.5,1.5-1.5,1.5.7,1.5,1.5-.7,1.5-1.5,1.5ZM88,14.6h1.8l1,1v1.7c-.1-1.5-1.3-2.7-2.8-2.7ZM104.3,14.9c-.1.1-.2.3-.2.5h-11.7c0-.2,0-.4-.2-.5l-.2-.2h12.6l-.2.2ZM108.4,19c-.8,0-1.5-.7-1.5-1.5s.7-1.5,1.5-1.5,1.5.7,1.5,1.5-.7,1.5-1.5,1.5ZM108.5,14.6h1.8l1,1v1.5c-.2-1.4-1.4-2.5-2.8-2.5ZM114,14.6l-.2.2c-.1.1-.2.3-.2.5h-.8c0-.2,0-.4-.2-.5l-.2-.2h1.6ZM82.8,1.5h30v11.7h-30V1.5ZM84,14.6l-.2.2c-.1.1-.2.3-.2.5h-1.5v-.7h1.9Z"/>
  <path class="cls-1" d="M43.1,52.7h1.5c.6,0,1-.3,1.3-.8h-2.8v.8Z"/>
  <path class="cls-1" d="M46.1,47.4h-.8c-.4,0-.8-.3-.8-.8v-2.3h-7.6v.8c1.5.3,2.7,1.5,3,3h6.2v-.8ZM43.1,46.6h-3v-1.5h3v1.5Z"/>
  <path class="cls-1" d="M24.5,143.2c-.4,0-.7.3-.7.7v1.8c0,.4.3.7.7.7s.7-.3.7-.7v-1.8c0-.4-.3-.7-.7-.7Z"/>
  <rect class="cls-1" x="117.9" y="11" width="2.2" height="1.5"/>
  <path class="cls-1" d="M202.5,141.1c-.1-.2-.4-.4-.6-.4h-4.5c-.4,0-.7.3-.7.7v7.6c0,.4.3.7.7.7h8.9c.2,0,.5-.1.6-.4.1-.2.1-.5,0-.7l-4.4-7.6ZM198.1,148.4v-6.2h3.4l3.6,6.2h-7Z"/>
  <path class="cls-1" d="M36.2,52c-1.7,0-3,1.4-3,3s1.4,3,3,3,3-1.4,3-3-1.4-3-3-3ZM36.2,56.5c-.8,0-1.5-.7-1.5-1.5s.7-1.5,1.5-1.5,1.5.7,1.5,1.5-.7,1.5-1.5,1.5Z"/>
  <path class="cls-1" d="M44.5,151.9h0v-8.5c0-.3-.2-.6-.6-.7l-8.4-1.3-.8-6.3h2.9c.2,0,.4,0,.5-.2.1-.1.2-.3.1-.5-.2-1.7-1.7-3-3.4-3h-4.8c-.4-1.2-1.5-2.1-2.8-2.1h-5.4c-.4,0-.7.3-.7.7v6.9h-.4v-.9c0-.6-.3-1.2-.8-1.5v-7.1c0-.2-.1-.5-.3-.6-.2-.1-.5-.1-.7,0l-2.2,1.5c-.2.1-.3.3-.3.5v5.6c-.5.3-.8.9-.8,1.5v.9c0,.4.3.7.7.7s.7-.3.7-.7v-.9c0-.3.2-.5.5-.5h1.5c.3,0,.5.2.5.5v7.7c0,.3-.2.5-.5.5h-1.5c-.3,0-.5-.2-.5-.5v-4.2c0-.4-.3-.7-.7-.7s-.7.3-.7.7v4.2c0,1,.8,1.8,1.8,1.8h1.5c1,0,1.8-.8,1.8-1.8v-.7h.4v6.6h-2.7l-1.6-3.1c-.1-.2-.3-.4-.6-.4H6.5c-.2,0-.5.1-.6.4l-1.6,3.1H1.7c-.9,0-1.7.8-1.7,1.7v2.7c0,.9.8,1.7,1.7,1.7h.7c.3,2.7,2.6,4.8,5.4,4.8s3.9-1.2,4.8-2.9c.9,1.7,2.7,2.9,4.8,2.9s5.1-2.1,5.4-4.8h8.2c.3,2.7,2.6,4.8,5.4,4.8s3.8-1.1,4.7-2.7h2.7c.8,0,1.4-.6,1.4-1.4v-3.4c0-.5-.3-1-.7-1.2ZM18.7,134.2h-.8v-5l.8-.6v5.6ZM42.1,143.8l1.1.2v7.4c-.3-.6-.7-1.1-1.1-1.6v-6ZM20.9,141.7v-3.5h.4v3.5h-.4ZM7,147.5h9.1l1.1,2.1H5.9l1.1-2.1ZM1.7,154.4c-.2,0-.4-.2-.4-.4v-2.7c0-.2.2-.4.4-.4h2.6c-1,.9-1.7,2.1-1.9,3.4h-.7ZM7.9,159.2c-2.3,0-4.1-1.9-4.1-4.1s1.9-4.2,4.1-4.2,4.2,1.9,4.2,4.2-1.9,4.1-4.2,4.1ZM11.4,150.9h2.5c-.5.4-.9,1-1.2,1.5-.3-.6-.7-1.1-1.2-1.5ZM17.5,159.2c-2.3,0-4.2-1.9-4.2-4.1s1.9-4.2,4.2-4.2,4.1,1.9,4.1,4.2-1.9,4.1-4.1,4.1ZM28.8,154.4h-5.9c-.2-1.4-.9-2.6-1.9-3.4h9c-.7,1-1.1,2.2-1.2,3.4ZM36.5,159.2c-2.3,0-4.2-1.9-4.2-4.1s1.9-4.2,4.2-4.2,4.2,1.9,4.2,4.2-1.9,4.1-4.2,4.1ZM40.8,151.7c-1-1.3-2.5-2.1-4.3-2.1-2.8,0-5.1,2.1-5.4,4.8h-.9c.2-2,1.4-3.8,3.1-4.8.3-.2.4-.6.2-.9s-.6-.4-.9-.2c-.5.3-1,.7-1.5,1.2h-8.5v-14.5h3.1c.4,0,.7-.3.7-.7s-.3-.7-.7-.7h-3.1v-3.1h4.8c.7,0,1.3.4,1.5,1.1l.2.5c0,.3.3.5.6.5h5.3c.8,0,1.5.4,1.9,1.1h-6.4c-.4,0-.7.3-.7.7s.3.7.7.7h3l.9,7c0,.3.3.5.5.6l5.9.9v5.1c-.2-.2-.5-.3-.7-.4v-4.1c0-.4-.3-.7-.7-.7-1.5,0-2.8,1.3-2.8,2.8s0,.8.2,1.1h-.3c-.4,0-.8,0-1.1,0-.4,0-.6.4-.6.8,0,.4.4.6.8.6.3,0,.6,0,1,0,2.2,0,4.2,1.1,5.4,3h-1.1ZM38.8,145v2.6h0c-.5-.2-.8-.7-.8-1.3s.3-1.1.8-1.3ZM43.9,156.5h-2.1c.1-.5.2-.9.2-1.4,0-.7-.1-1.4-.4-2.1h2.3s0,0,0,0v3.4s0,0,0,0Z"/>
  <path class="cls-1" d="M210.1,155.2v-5.6c0-.4-.1-.9-.3-1.3l-5.3-9.1c-.4-.8-1.3-1.2-2.2-1.2h-6.8v-2.3c0-1.4-1.1-2.5-2.5-2.5h-26c-1.4,0-2.5,1.1-2.5,2.5v19.5c0,1.4,1.1,2.5,2.5,2.5h1.9c.3,2.3,2.3,4,4.7,4s4.3-1.8,4.7-4h16.5s0,0,0,0h2.7c.3,2.3,2.3,4.1,4.7,4.1s4.3-1.8,4.7-4.1h.7c1.4,0,2.5-1.1,2.5-2.5h0ZM177.9,155.1h16.1v1.2h-15.8c0-.4-.2-.8-.3-1.2ZM166.9,134.7h26c.6,0,1.1.5,1.1,1.1v3s0,0,0,0v14.9h-17.1c-.9-.9-2.1-1.4-3.4-1.4s-2.5.6-3.4,1.4h-4.2v-17.9c0-.6.5-1.1,1.1-1.1ZM165.8,155.2h0c0-.1,3.3-.1,3.3-.1-.2.4-.3.8-.3,1.2h-1.9c-.6,0-1.1-.5-1.1-1.1ZM173.5,160.3c-1.8,0-3.3-1.5-3.3-3.3s1.5-3.3,3.3-3.3,3.3,1.5,3.3,3.3-1.5,3.3-3.3,3.3ZM202.2,160.3c-1.8,0-3.3-1.5-3.3-3.3s1.5-3.3,3.3-3.3,3.3,1.5,3.3,3.3-1.5,3.3-3.3,3.3ZM208.6,155.2c0,.6-.5,1.1-1.1,1.1h-.7c-.3-2.3-2.3-4-4.7-4s-4.3,1.8-4.7,4h-2.1v-16.8h6.9c.4,0,.7.2.9.5l5.3,9.1c.1.2.2.3.2.5v5.6Z"/>
  <rect class="cls-1" x="109.2" y="2.2" width="2.2" height="1.5"/>
  <path class="cls-1" d="M202.2,154.9c-1.1,0-2.1.9-2.1,2.1s.9,2.1,2.1,2.1,2.1-.9,2.1-2.1-.9-2.1-2.1-2.1ZM202.2,157.6c-.4,0-.7-.3-.7-.6s.3-.7.7-.7.6.3.6.7-.3.6-.6.6Z"/>
  <path class="cls-1" d="M173.5,154.9c-1.1,0-2.1.9-2.1,2.1s.9,2.1,2.1,2.1,2.1-.9,2.1-2.1-.9-2.1-2.1-2.1ZM173.5,157.6c-.4,0-.6-.3-.6-.6s.3-.7.6-.7.7.3.7.7-.3.6-.7.6Z"/>
  <rect class="cls-1" x="84.3" y="2.2" width="2.2" height="1.5"/>
  <path class="cls-1" d="M31.9,135.8h-7.4c-.4,0-.7.3-.7.7v5.3h0c0,.4.3.7.7.7h7.9c.2,0,.4,0,.5-.2.1-.1.2-.3.2-.5l-.5-5.3c0-.3-.3-.6-.7-.6ZM25.9,141.1h-.8v-4h.8v4ZM27.3,141.1v-4h4l.4,4h-4.4Z"/>
  <polygon class="cls-1" points="15.4 29.8 18.3 34.7 18.3 34.7 19.6 34 16.7 29.1 15.4 29.8"/>
  <polygon class="cls-1" points="24.5 22.6 24.2 21.9 3.8 33.9 4.2 34.7 24.5 22.6"/>
  <path class="cls-1" d="M27.9,54.2c.4,0,.8-.3.8-.8v-.8h-1.5v.8c0,.4.3.8.8.8Z"/>
  <rect class="cls-1" x="3.5" y="46.6" width="29.7" height="1.5"/>
  <polygon class="cls-1" points="7.5 34.5 10.5 39.5 10.5 39.5 11.8 38.7 8.8 33.7 7.5 34.5"/>
  <path class="cls-1" d="M194.7,50c0-.4-.3-.6-.7-.6h-27.8c-.4,0-.6.3-.6.6s.3.7.6.7h27.8c.4,0,.7-.3.7-.7Z"/>
  <polygon class="cls-1" points="5 36.1 7.9 41.1 9.2 40.3 6.2 35.3 5 36.1"/>
  <path class="cls-1" d="M176.6,54.9c-.4,0-.7.3-.7.6s.3.7.7.7.6-.3.6-.7-.3-.6-.6-.6Z"/>
  <path class="cls-1" d="M7.9,152.2c-1.6,0-2.9,1.3-2.9,2.9s1.3,2.9,2.9,2.9,2.9-1.3,2.9-2.9-1.3-2.9-2.9-2.9ZM7.9,156.7c-.9,0-1.6-.7-1.6-1.6s.7-1.6,1.6-1.6,1.6.7,1.6,1.6-.7,1.6-1.6,1.6Z"/>
  <polygon class="cls-1" points="10.2 33 13.1 37.9 14.4 37.1 11.5 32.2 10.2 33"/>
  <path class="cls-1" d="M162.7,55.7c-1.7-2.5-5.1-3.1-7.6-1.4l-45.1,31V28.8c0-3-2.5-5.5-5.5-5.5s-5.5,2.5-5.5,5.5v56.5l-45.1-31c-2.5-1.7-5.9-1.1-7.6,1.4-1.7,2.5-1.1,5.9,1.4,7.7l47.2,32.4-47.2,32.4c-2.5,1.7-3.1,5.2-1.4,7.7,1.1,1.5,2.8,2.4,4.5,2.4s2.2-.3,3.1-1l45.1-31v56.5c0,3,2.5,5.5,5.5,5.5s5.5-2.5,5.5-5.5v-56.5l45.1,31c1,.7,2,1,3.1,1,1.8,0,3.5-.8,4.5-2.4,1.7-2.5,1.1-5.9-1.4-7.7l-47.2-32.4,47.2-32.4c2.5-1.7,3.1-5.1,1.4-7.6Z"/>
  <path class="cls-1" d="M199.6,56.2c.4,0,.6-.3.6-.7s-.3-.6-.6-.6-.7.3-.7.6.3.7.7.7Z"/>
  <path class="cls-1" d="M171.1,54.9c-.4,0-.7.3-.7.6s.3.7.7.7.6-.3.6-.7-.3-.6-.6-.6Z"/>
  <path class="cls-1" d="M124.3,187v-3.1c0-.9-.7-1.6-1.6-1.6h-6.5l-.3-1-1-3.1-.6-1.8c-.2-.6-.8-1.1-1.5-1.1h-5.7v-.8c0-1.3-1-2.3-2.3-2.3s-.8.3-.8.8.3.8.8.8.8.3.8.8v12.5h-1.6s-1.5,0-1.5,0h-12.5s-7.8,0-7.8,0c-.9,0-1.6.7-1.6,1.6v1.6c0,.9.7,1.6,1.6,1.6h1.8c.5,1.4,1.8,2.3,3.3,2.3s2.8-.9,3.3-2.3h1.2c.5,1.4,1.8,2.3,3.3,2.3s2.8-.9,3.3-2.3h2c.3.5.8.8,1.3.8h6.2c.6,0,1.1-.3,1.3-.8h7.5c.5,1.4,1.8,2.3,3.3,2.3s2.8-.9,3.3-2.3h1c.9,0,1.6-.7,1.6-1.6v-1.6h0c0-.9-.7-1.6-1.6-1.6ZM84.1,189.1s0,0,0,0c0,.2-.2.4-.2.6,0,0,0,0,0,0,0,0,0,.2,0,.3h-1.6v-1.6h2.2c-.1.2-.2.4-.3.5ZM87.3,192.5c-1.1,0-2-.9-2-2s0-.3,0-.5c0,0,0,0,0-.1,0-.1,0-.2.1-.3,0,0,0,0,0-.1.2-.3.4-.5.7-.7,0,0,0,0,0,0,.1,0,.2-.1.4-.2,0,0,0,0,.1,0,.3,0,.6,0,.9,0,0,0,0,0,.1,0,.1,0,.3,0,.4.2,0,0,0,0,0,0,.3.2.5.4.7.7,0,0,0,0,0,.1,0,0,0,.2.1.3,0,0,0,0,0,.1,0,.2,0,.3,0,.5,0,1.1-.9,2-2,2ZM91.9,189.1h0s0,0,0,0c0,.2-.2.4-.2.6,0,0,0,0,0,0,0,0,0,.2,0,.3h-.8c0,0,0-.2,0-.3,0,0,0,0,0,0,0-.2-.1-.4-.2-.6h0c0-.3-.2-.5-.3-.6h2c-.1.2-.2.4-.3.5ZM95.1,192.5c-1.1,0-1.9-.9-1.9-2s0-.3,0-.5c0,0,0,0,0-.1,0-.1,0-.2.1-.3,0,0,0,0,0-.1.2-.3.4-.5.7-.7,0,0,0,0,0,0,.1,0,.2-.1.4-.2,0,0,0,0,.1,0,.3,0,.6,0,.9,0,0,0,0,0,.1,0,.1,0,.3,0,.4.2,0,0,0,0,0,0,.3.2.5.4.7.7,0,0,0,0,0,.1,0,0,0,.2.1.3,0,0,0,0,0,.1,0,.2,0,.3,0,.5,0,1.1-.9,2-2,2ZM100.2,190.1h-1.6c0,0,0-.2,0-.2,0,0,0,0,0,0,0-.2-.1-.4-.2-.6h0c0-.3-.2-.5-.3-.6h2.1v1.6ZM114.2,180.8h-2.3v-1.6h1.8l.5,1.6ZM108,190.9h-6.2v-2.3h6.2v2.3ZM107.2,187v-10.1h5.7l.3.8h-1.3c-.9,0-1.6.7-1.6,1.6v1.6c0,.9.7,1.6,1.6,1.6h2.8l.3.9v3.8h-7.8ZM116.9,189.1s0,0,0,0c0,.2-.2.4-.2.6,0,0,0,0,0,0,0,0,0,.2,0,.3h-7.1v-1.6h7.6c-.1.2-.2.4-.3.5ZM122,190.5c0,1.1-.9,2-1.9,2s-2-.9-2-2,0-.3,0-.5c0,0,0,0,0-.1,0-.1,0-.2.1-.3,0,0,0,0,0-.1.2-.3.4-.5.7-.7,0,0,0,0,0,0,.1,0,.2-.1.4-.2,0,0,0,0,.1,0,.2,0,.3,0,.5,0s.3,0,.5,0c0,0,0,0,.1,0,.1,0,.3,0,.4.2,0,0,0,0,0,0,.3.2.5.4.7.7,0,0,0,0,0,.1,0,0,0,.2.1.3,0,0,0,0,0,.1,0,.2,0,.3,0,.5h0ZM122.8,184.7h-.8c-.4,0-.8.3-.8.8s.3.8.8.8h.8v.8h-6.2v-3.1h6.2v.8ZM124.4,188.6v1.6h-.8c0,0,0-.2,0-.3,0,0,0,0,0,0,0-.2-.1-.4-.2-.6,0,0,0,0,0,0,0-.2-.2-.4-.3-.6h1.4,0Z"/>
  <path class="cls-1" d="M4.2,41.3v-3.5h0l-.8-1.3v6.1c.1,0,.2-.2.3-.2.3-.3.5-.7.5-1.1Z"/>
  <path class="cls-1" d="M7.3,55c0,1.7,1.4,3,3,3s3-1.4,3-3-1.4-3-3-3-3,1.4-3,3ZM11.8,55c0,.8-.7,1.5-1.5,1.5s-1.5-.7-1.5-1.5.7-1.5,1.5-1.5,1.5.7,1.5,1.5Z"/>
  <rect class="cls-1" x="28.6" y="42.8" width="2.3" height="2.3"/>
  <path class="cls-1" d="M36.5,152.2c-1.6,0-2.9,1.3-2.9,2.9s1.3,2.9,2.9,2.9,2.9-1.3,2.9-2.9-1.3-2.9-2.9-2.9ZM36.5,156.7c-.9,0-1.6-.7-1.6-1.6s.7-1.6,1.6-1.6,1.6.7,1.6,1.6-.7,1.6-1.6,1.6Z"/>
  <path class="cls-1" d="M164.9,54.9c0,.8.6,1.3,1.3,1.3h1.5c.3,1.6,1.7,2.8,3.4,2.8s2.2-.6,2.8-1.4c.6.9,1.6,1.4,2.8,1.4,1.7,0,3.1-1.2,3.4-2.8h16.2c.3,1.6,1.7,2.8,3.4,2.8s3.4-1.5,3.4-3.4h0s2.8,0,2.8,0c.8,0,1.3-.6,1.3-1.3v-5.7h0c0-.6-.2-1.1-.6-1.5l-.9-.9-1.8-5.3c.3,0,.5-.3.5-.6s-.3-.6-.7-.6h-6.3v-2.8c0-.8-.6-1.3-1.3-1.3h-32c-.8,0-1.3.6-1.3,1.3v15.3c0,.8.6,1.4,1.3,1.4h.7v1.4ZM204.5,46.6h-4.2s0,0,0,0v-2.8h3.3l1,2.9ZM197.5,41s0,0,0,0h5.1l.5,1.5h-3.5c-.4,0-.7.3-.7.7v3.5c0,.8.6,1.3,1.4,1.3h5.4c.1.2.2.4.2.6v1.6h-.7c-.4,0-.7.3-.7.7s.3.7.7.7h.7v2.8s0,0,0,0h-3.1c-.5-1.2-1.7-2.1-3.2-2.1h-2.1v-11.2ZM199.6,53.4h0c1.2,0,2.1,1,2.1,2.1s-1,2.1-2.1,2.1-2.1-1-2.1-2.1,1-2.1,2.1-2.1ZM167.7,54.9h-1.5s0,0,0,0v-1.4h2.2c-.3.4-.6.9-.7,1.5ZM173.2,55.6c0,1.2-1,2.1-2.1,2.1s-2.1-1-2.1-2.1,1-2.1,2.1-2.1h0c1.2,0,2.1,1,2.1,2.1h0ZM178.8,55.6c0,1.2-1,2.1-2.1,2.1s-2.1-1-2.1-2.1,1-2.1,2.1-2.1h0c1.2,0,2.1,1,2.1,2.1h0ZM164.1,52.1s0,0,0,0v-15.3s0,0,0,0h32s0,0,0,0v15.3h-1.4c-.4,0-.7.3-.7.7s.3.6.7.6h2.2c-.3.4-.6.9-.7,1.5h-16.2c0-.5-.3-1.1-.7-1.5h12.6c.4,0,.7-.3.7-.6s-.3-.7-.7-.7h-27.8Z"/>
  <polygon class="cls-1" points="12.8 31.4 15.7 36.3 17 35.6 14.1 30.6 12.8 31.4"/>
  <path class="cls-1" d="M17.2,55c0,1.7,1.4,3,3,3s3-1.4,3-3-1.4-3-3-3-3,1.4-3,3ZM21.8,55c0,.8-.7,1.5-1.5,1.5s-1.5-.7-1.5-1.5.7-1.5,1.5-1.5,1.5.7,1.5,1.5Z"/>
  <polygon class="cls-1" points="29.4 41.3 30.1 41.3 30.1 32.7 29.4 33.2 29.4 41.3"/>
  <path class="cls-1" d="M28.2,30.5l-20.7,12.5.7,1,21.7-13-3.6-10h0c-.1-.3,0-.7.3-.9l3.1-1.9-.7-1-4.2,2.4,3.6,10.1c.1.3,0,.7-.3.9Z"/>
  <polygon class="cls-1" points="18 28.3 20.9 33.2 20.9 33.2 22.2 32.4 19.3 27.5 18 28.3"/>
  <path class="cls-1" d="M17.5,152.2c-1.6,0-2.9,1.3-2.9,2.9s1.3,2.9,2.9,2.9,2.9-1.3,2.9-2.9-1.3-2.9-2.9-2.9ZM17.5,156.7c-.9,0-1.6-.7-1.6-1.6s.7-1.6,1.6-1.6,1.6.7,1.6,1.6-.7,1.6-1.6,1.6Z"/>
  <polygon class="cls-1" points="20.6 26.7 23.5 31.6 24.8 30.8 21.9 25.9 20.6 26.7"/>
  <polygon class="cls-1" points="23.2 25.1 26.2 30 26.9 29.5 25 24.1 25 24.1 23.2 25.1"/>
</svg>