<?xml version="1.0" encoding="UTF-8"?>
<svg id="Capa_2" data-name="Capa 2" xmlns="http://www.w3.org/2000/svg" viewBox="0 0 231.17 163.6">
  <g id="Capa_2-2" data-name="Capa 2">
    <path d="M39.75,93.86c-7.98,0-14.45,6.47-14.45,14.45s6.47,14.45,14.45,14.45,14.45-6.47,14.45-14.45-6.47-14.45-14.45-14.45ZM39.75,115.54c-3.99,0-7.23-3.24-7.23-7.23s3.24-7.23,7.23-7.23,7.23,3.24,7.23,7.23-3.24,7.23-7.23,7.23ZM72.27,38.04v-3.99c0-.89.72-1.62,1.62-1.62h7.61c.89,0,1.62.72,1.62,1.62v3.99c0,.89-.72,1.62-1.62,1.62h-7.61c-.89,0-1.62-.72-1.62-1.62ZM220.42,58.73V25.21c0-2-1.62-3.61-3.61-3.61h-10.85c-.95-12.08-11.04-21.59-23.36-21.59s-22.42,9.51-23.36,21.59H61.43c-2,0-3.61,1.62-3.61,3.61v61.43h-3.61v-39.75c0-2-1.62-3.61-3.61-3.61h-28.62c-6.02.02-11.41,3.76-13.54,9.39L.23,74.54c-.15.4-.23.83-.23,1.25v28.91c0,2,1.62,3.61,3.61,3.61h18.07c2,0,3.61-1.62,3.61-3.61v-5.73l5.11-5.11h18.69l5.11,5.11v9.34h7.23v-3.61h3.61v3.61h7.23v-9.34l5.11-5.11h18.69l5.11,5.11v9.34h7.23v-3.61h25.61v41.07c0,4.61,3.74,8.36,8.35,8.36s8.36-3.74,8.36-8.36v-41.07h4.08v58.9h25.73v-16.34c0-1.13.92-2.04,2.04-2.04s2.04.92,2.04,2.04v16.34h25.75v-58.9h4.08v41.07c0,4.61,3.74,8.35,8.36,8.35s8.36-3.74,8.36-8.35v-68.93c0-7.81-4.35-14.61-10.75-18.11ZM15.2,55.2c1.06-2.82,3.76-4.69,6.77-4.7h14.17v15.1l-26.86,5.37,5.92-15.78ZM46.97,86.63h-18.07c-.96,0-1.88.38-2.55,1.06l-7.23,7.23c-.68.68-1.06,1.6-1.06,2.55v3.61H7.23v-3.61h7.23v-7.23h-7.23v-11.49l33.24-6.65c1.68-.34,2.89-1.82,2.89-3.54v-18.07h3.61v36.13ZM66.1,94.92c-.68.68-1.06,1.6-1.06,2.55h-3.61c0-.96-.38-1.88-1.06-2.55l-1.06-1.06h7.85l-1.06,1.06ZM134.02,97.47h-25.61c0-.96-.38-1.88-1.06-2.55l-1.06-1.06h27.73v3.61ZM154.81,97.47h-4.08v-3.61h4.08v3.61ZM203.61,72.16l-23.26,23.13c-.3.3-.71.47-1.14.47h0c-.43,0-.83-.17-1.14-.47l-7.64-7.69c-.63-.64-.63-1.66,0-2.28.64-.63,1.66-.63,2.28,0l6.5,6.55,11.59-11.54c-2.89-3.7-7.33-5.9-12.05-5.9-4.21,0-8.28,1.77-11.16,4.86-2.92,3.13-4.36,7.22-4.05,11.51.53,7.51,6.59,13.58,14.1,14.12,7.89.56,15.01-5.09,16.21-12.87.12-.78.18-1.57.18-2.35,0-.89.72-1.61,1.61-1.61s1.61.72,1.61,1.61c0,.96-.07,1.91-.21,2.84-.71,4.54-3.07,8.65-6.66,11.55-3.29,2.67-7.38,4.1-11.61,4.1-.45,0-.9,0-1.35-.04-9.1-.65-16.44-8.01-17.08-17.11-.19-2.63.17-5.2,1.06-7.64.85-2.34,2.15-4.46,3.86-6.3,1.71-1.84,3.74-3.28,6.02-4.3,2.36-1.05,4.88-1.58,7.5-1.58,5.59,0,10.85,2.52,14.35,6.83l8.22-8.17c.64-.63,1.66-.63,2.28,0,.63.64.62,1.66,0,2.28ZM154.66,56.2c-11.4.01-20.63,9.25-20.65,20.65v9.79h-68.97V28.82h94.73c2.43,10.36,11.72,18.07,22.82,18.07,6.65,0,12.64-2.78,16.91-7.23h6.47v-7.23h-1.73c.48-1.16.87-2.37,1.16-3.61h7.79v27.56c-.87-.11-1.76-.18-2.67-.18h-55.86ZM214.46,97.47h-4.08v-3.61h4.08v3.61ZM28.91,80.33v-1.85c0-1.49,1.2-2.69,2.69-2.69h5.46c1.49,0,2.69,1.2,2.69,2.69v1.85c0,1.49-1.2,2.69-2.69,2.69h-5.46c-1.49,0-2.69-1.2-2.69-2.69ZM86.72,93.86c-7.98,0-14.45,6.47-14.45,14.45s6.47,14.45,14.45,14.45,14.45-6.47,14.45-14.45-6.47-14.45-14.45-14.45ZM86.72,115.54c-3.99,0-7.23-3.24-7.23-7.23s3.24-7.23,7.23-7.23,7.23,3.24,7.23,7.23-3.24,7.23-7.23,7.23Z" style="fill: #005d7a; stroke-width: 0px;"/>
  </g>
</svg>