<?xml version="1.0" encoding="UTF-8"?>
<svg id="Capa_2" data-name="Capa 2" xmlns="http://www.w3.org/2000/svg" viewBox="0 0 228.36 183.57">
  <g id="Capa_2-2" data-name="Capa 2">
    <path d="M220.48,148.14v-15.75c0-4.35-3.53-7.87-7.87-7.87h-32.6l-1.74-5.19-5.23-15.75-3.04-9.12c-1.07-3.21-4.09-5.38-7.47-5.38h-28.66v-3.94c0-6.52-5.29-11.81-11.81-11.81-2.17,0-3.94,1.76-3.94,3.94s1.76,3.94,3.94,3.94,3.94,1.76,3.94,3.94v62.99h-7.87v-23.62c0-4.35-3.53-7.87-7.87-7.87h-7.87v-23.62c0-4.35-3.53-7.87-7.87-7.87h-23.62c-4.35,0-7.87,3.52-7.87,7.87v23.62h-7.87c-4.35,0-7.87,3.52-7.87,7.87v23.62H7.88C3.53,148.14,0,151.66,0,156.01v7.87c0,4.35,3.53,7.87,7.87,7.87h8.96c2.47,7.07,9.14,11.81,16.63,11.81s14.16-4.74,16.63-11.81h6.11c2.47,7.07,9.14,11.81,16.63,11.81s14.16-4.74,16.63-11.81h10.06c1.39,2.43,3.98,3.93,6.78,3.94h31.5c2.8,0,5.38-1.51,6.78-3.94h37.62c2.47,7.07,9.14,11.81,16.63,11.81s14.16-4.74,16.63-11.81h5.02c4.35,0,7.87-3.53,7.87-7.87v-7.87c0-4.35-3.53-7.87-7.87-7.87ZM212.61,136.33h-3.94c-2.17,0-3.94,1.76-3.94,3.94s1.76,3.94,3.94,3.94h3.94v3.94h-31.5v-15.75h31.5v3.94ZM169.08,116.64h-11.59v-7.87h8.97l2.62,7.87ZM133.86,96.95h28.66l1.31,3.94h-6.35c-4.35,0-7.87,3.52-7.87,7.87v7.87c0,4.35,3.53,7.87,7.87,7.87h14.21l1.53,4.58v19.05h-39.37v-51.18ZM70.87,93.02h7.87v3.94c0,2.17,1.76,3.94,3.94,3.94s3.94-1.76,3.94-3.94v-3.94h7.87v23.62h-23.62v-23.62ZM78.75,124.51h7.87v7.87h-7.87v-7.87ZM55.12,124.51h15.75v11.81c0,2.17,1.76,3.94,3.94,3.94h15.75c2.17,0,3.94-1.76,3.94-3.94v-11.81h15.75v23.62h-55.12v-23.62ZM90.23,162.58c-.03-.15-.04-.3-.07-.44-.22-1.03-.53-2.03-.94-3.01l-.16-.37c-.41-.96-.9-1.88-1.48-2.75h10.85v7.87h-7.98c-.05-.44-.15-.87-.22-1.3ZM56.46,159.16c-.4.97-.71,1.97-.93,3-.03.14-.05.29-.07.44-.08.43-.17.86-.22,1.3h-4.15c-.05-.44-.15-.87-.22-1.3-.03-.15-.04-.3-.07-.44-.22-1.03-.53-2.04-.94-3.01l-.16-.37c-.41-.96-.9-1.88-1.48-2.75h9.89c-.57.87-1.07,1.8-1.47,2.75-.06.1-.12.22-.17.37ZM7.88,156.01h10.86c-.57.87-1.07,1.79-1.47,2.75-.06.13-.12.26-.17.39-.4.97-.71,1.97-.93,3-.03.14-.05.29-.07.44-.08.43-.17.86-.22,1.3h-7.98v-7.89ZM33.47,175.7c-5.43,0-9.84-4.41-9.84-9.84,0-.78.11-1.55.3-2.3.06-.22.13-.43.2-.65.17-.54.38-1.07.64-1.57.1-.19.19-.37.3-.55.83-1.36,1.98-2.51,3.34-3.34.08-.05.17-.09.24-.13.58-.33,1.2-.59,1.85-.79.21-.07.39-.14.61-.19,1.55-.42,3.18-.42,4.72,0,.2.05.39.12.58.18.68.21,1.33.49,1.94.85.06.04.13.07.19.11,1.35.82,2.49,1.96,3.31,3.32.11.19.22.39.32.59.25.49.46,1,.62,1.52.07.22.15.43.21.66.19.75.3,1.52.31,2.3,0,5.43-4.41,9.84-9.84,9.84ZM72.84,175.7c-5.43,0-9.84-4.41-9.84-9.84,0-.78.11-1.55.3-2.3.06-.22.13-.43.2-.65.17-.54.38-1.07.64-1.57.1-.19.19-.37.3-.55.83-1.36,1.98-2.51,3.34-3.34.08-.05.17-.09.24-.13.58-.33,1.2-.59,1.85-.79.21-.07.39-.14.61-.19,1.55-.42,3.18-.42,4.72,0,.2.05.39.12.58.18.68.21,1.33.49,1.94.85.06.04.13.07.19.11,1.35.82,2.49,1.96,3.31,3.32.11.19.22.39.32.59.25.49.46,1,.62,1.52.07.22.15.43.21.66.19.75.3,1.52.31,2.3,0,5.43-4.41,9.84-9.84,9.84ZM106.3,167.82v-11.81h31.5v11.81h-31.5ZM145.68,156.01h38.42c-.57.87-1.07,1.79-1.47,2.75-.06.13-.12.26-.17.39-.4.97-.71,1.97-.93,3-.03.14-.05.29-.07.44-.08.43-.17.86-.22,1.3h-35.54v-7.89ZM198.83,175.7c-5.43,0-9.84-4.41-9.84-9.84,0-.78.11-1.55.3-2.3.06-.22.13-.43.2-.65.17-.54.38-1.07.64-1.57.1-.19.19-.37.3-.55.83-1.36,1.98-2.51,3.34-3.34.08-.05.17-.09.24-.13.58-.33,1.2-.59,1.85-.79.21-.07.39-.14.61-.19.77-.2,1.56-.31,2.36-.32h.04c.79.01,1.57.12,2.34.32.19.05.39.11.57.17.68.21,1.33.5,1.94.85.06.04.13.07.19.11,1.35.82,2.49,1.96,3.31,3.32.11.19.22.39.32.59.25.49.46,1,.62,1.52.07.22.15.43.21.66.19.75.29,1.52.3,2.3,0,5.43-4.41,9.84-9.84,9.84ZM220.48,163.88h-4.04c-.05-.44-.15-.87-.22-1.31-.03-.15-.04-.29-.07-.44-.22-1.03-.53-2.03-.94-3.01-.05-.12-.1-.24-.16-.36-.41-.96-.9-1.88-1.47-2.75h6.91v7.87ZM173.6,47.14h36.68c9.98,0,18.07-8.09,18.07-18.07s-8.09-18.07-18.07-18.07c-.37,0-.75,0-1.12.03-3.74-7.45-11.72-11.8-20.01-10.92-8.29.88-15.17,6.81-17.26,14.89-8.52.91-14.84,8.33-14.39,16.88.46,8.56,7.53,15.26,16.1,15.26ZM173.6,22.79c.36,0,.73.02,1.09.07,1.08.14,2.17-.17,3.01-.86s1.36-1.7,1.43-2.79c.38-5.88,4.92-10.64,10.77-11.3,5.85-.66,11.33,2.97,13.01,8.62.61,2.03,2.72,3.21,4.78,2.67,3.82-.97,7.85.34,10.37,3.38,2.51,3.03,3.05,7.24,1.39,10.81-1.66,3.57-5.23,5.86-9.17,5.89h-36.68c-4.55,0-8.24-3.69-8.24-8.24s3.69-8.24,8.24-8.24v-.02ZM14.46,69.84h39.93c8.06,0,14.94-5.83,16.26-13.78,1.32-7.95-3.3-15.69-10.93-18.3-2.44-7.81-9.65-13.15-17.83-13.2-5.39-.01-10.53,2.32-14.06,6.39-7.1-.57-13.72,3.62-16.25,10.28C4.3,42.7-.67,49.45.07,56.83c.75,7.38,6.96,13,14.38,13ZM14.57,48.82c1.99.05,3.7-1.39,4-3.35.61-3.84,3.91-6.67,7.8-6.69.71,0,1.42.1,2.11.28,1.66.46,3.43-.22,4.36-1.66,1.98-3.09,5.39-4.95,9.06-4.94,5.31.03,9.82,3.9,10.65,9.15.26,1.69,1.57,3.01,3.25,3.29,4.42.73,7.55,4.73,7.18,9.19-.37,4.47-4.1,7.9-8.58,7.9H14.46c-3.64-.03-6.56-3-6.53-6.64.03-3.64,3-6.56,6.64-6.53Z" style="fill: #005d7a; stroke-width: 0px;"/>
  </g>
</svg>